<?xml version="1.0" encoding="utf-8"?>
<!-- Generator: Adobe Illustrator 19.0.1, SVG Export Plug-In . SVG Version: 6.00 Build 0)  -->
<svg version="1.1" id="Layer_1" xmlns="http://www.w3.org/2000/svg" xmlns:xlink="http://www.w3.org/1999/xlink" x="0px" y="0px"
	 viewBox="0 0 50 52.6" style="enable-background:new 0 0 50 52.6;" xml:space="preserve">
<style type="text/css">
	.st0{fill:#2F344F;}
	.st1{fill:#DAA0F1;}
	.st2{fill:#74CEC5;}
	.st3{fill:#EC7527;}
	.st4{fill:#E4538C;}
	.st5{fill:#32A5EC;}
	.st6{fill:#FFF66C;}
	.st7{fill:#FCD5E4;}
	.st8{fill:#6499C9;}
	.st9{fill:#D73584;}
	.st10{fill:#4B59AE;}
	.st11{fill:#FCAF6A;}
</style>
<g>
	<rect y="0" class="st0" width="50" height="52.6"/>
	<path class="st1" d="M17.5,37.6c-0.2,0-0.5-0.2-0.5-0.4c-0.1-0.6-0.4-1.1-0.9-1.4c-1-0.6-2.5-0.4-3-0.3c-1.1,0.3-2,0.2-2.7-0.3
		C9.1,34.3,9,32.6,9,32.5c0-0.3,0.2-0.5,0.5-0.6c0.3,0,0.5,0.2,0.6,0.5c0,0,0.1,1.3,1,1.9c0.5,0.3,1.1,0.4,1.9,0.2c0,0,0,0,0,0
		c0.1,0,2.2-0.5,3.8,0.5c0.7,0.4,1.2,1.1,1.4,2c0.1,0.3-0.1,0.6-0.4,0.6C17.6,37.6,17.5,37.6,17.5,37.6z"/>
	<path class="st2" d="M19.4,19.4C19.4,19.4,19.3,19.4,19.4,19.4c-0.2,0-1.6-0.3-2-1.4c-0.3-0.8-0.1-1.8,0.7-2.9
		c0.5-0.7,0.7-1.4,0.5-1.9c-0.3-0.9-1.5-1.2-1.5-1.2c-0.3-0.1-0.4-0.4-0.3-0.6c0.1-0.3,0.4-0.4,0.6-0.4c0.1,0,1.7,0.5,2.2,1.9
		c0.3,0.8,0.1,1.8-0.6,2.8c-0.4,0.5-0.8,1.3-0.6,1.9c0.2,0.6,1.1,0.8,1.1,0.8c0.3,0.1,0.5,0.3,0.4,0.6
		C19.9,19.2,19.6,19.4,19.4,19.4z"/>
	<path class="st1" d="M44.9,14.1C44.9,14.1,44.9,14.2,44.9,14.1c0.2,0.1,1.5,0.6,1.7,1.8c0.1,0.9-0.3,1.7-1.3,2.7
		c-0.7,0.6-1,1.2-0.9,1.7c0.1,0.9,1.2,1.5,1.2,1.5c0.3,0.1,0.3,0.5,0.2,0.7c-0.1,0.3-0.5,0.3-0.7,0.2c-0.1,0-1.6-0.9-1.7-2.3
		c-0.1-0.9,0.3-1.8,1.2-2.6c0.5-0.4,1.1-1.1,1-1.7c-0.1-0.6-0.9-1-0.9-1c-0.3-0.1-0.4-0.4-0.3-0.7C44.4,14.2,44.6,14.1,44.9,14.1z"
		/>
	<path class="st1" d="M3.9,13.3C3.8,13.3,3.8,13.3,3.9,13.3c-0.3,0-0.5-0.3-0.5-0.6l0.5-4c0-0.1,0.1-0.3,0.2-0.4
		c0.1-0.1,0.3-0.1,0.4-0.1l4,0.9L8.1,4.4c0-0.2,0-0.3,0.1-0.4c0.1-0.1,0.2-0.2,0.4-0.2L15,4.1l-1.9-2.6c-0.2-0.2-0.1-0.6,0.1-0.8
		c0.2-0.2,0.5-0.2,0.7,0.1l2.6,3.5c0.1,0.2,0.1,0.4,0.1,0.6c-0.1,0.2-0.3,0.3-0.5,0.3L9.1,4.9l0.4,5c0,0.2,0,0.3-0.2,0.4
		c-0.1,0.1-0.3,0.2-0.4,0.1l-4.1-1l-0.5,3.4C4.3,13.2,4.1,13.3,3.9,13.3z"/>
	<path class="st3" d="M2.2,32.9c-0.3,0-0.5-0.2-0.5-0.5v-6.9c0-0.2,0.1-0.4,0.3-0.5c0.2-0.1,0.4,0,0.6,0.1L5.1,28l-0.8-4.1
		c0-0.2,0-0.4,0.2-0.5c0.2-0.1,0.4-0.1,0.6,0l4.3,2.4L8.5,24c-0.1-0.3,0-0.6,0.2-0.7c0.3-0.1,0.6,0,0.7,0.2l1.7,3.2
		c0.1,0.2,0.1,0.5-0.1,0.6c-0.2,0.2-0.4,0.2-0.6,0.1l-4.9-2.7l0.9,4.8c0,0.2-0.1,0.5-0.3,0.6c-0.2,0.1-0.5,0.1-0.6-0.1l-2.8-3.1v5.5
		C2.7,32.7,2.5,32.9,2.2,32.9z"/>
	<path class="st3" d="M44.3,1c0.3-0.1,0.6,0,0.7,0.2l3.1,6.1c0.1,0.2,0.1,0.4-0.1,0.6c-0.1,0.2-0.4,0.2-0.6,0.1L44,6.7l2.5,3.3
		c0.1,0.2,0.1,0.4,0,0.6c-0.1,0.2-0.3,0.3-0.5,0.3l-5-0.2l1.5,1.1c0.2,0.2,0.3,0.5,0.1,0.7c-0.2,0.2-0.5,0.3-0.7,0.1l-2.9-2.1
		c-0.2-0.1-0.3-0.4-0.2-0.6c0.1-0.2,0.3-0.4,0.5-0.4L45,9.7l-3-3.9c-0.1-0.2-0.1-0.4,0-0.6C42.1,5,42.4,5,42.6,5l3.9,1.5L44,1.7
		C43.9,1.4,44,1.1,44.3,1z"/>
	<path class="st4" d="M10,18.5c-1.1,0-2.1-0.9-2.1-2.1c0-1.1,0.9-2.1,2.1-2.1c1.1,0,2.1,0.9,2.1,2.1C12,17.6,11.1,18.5,10,18.5z
		 M10,15.4c-0.6,0-1,0.5-1,1c0,0.6,0.5,1,1,1c0.6,0,1-0.5,1-1C11,15.9,10.5,15.4,10,15.4z"/>
	<path class="st5" d="M26.6,18.5c-1.1,0-2.1-0.9-2.1-2.1c0-1.1,0.9-2.1,2.1-2.1c1.1,0,2.1,0.9,2.1,2.1
		C28.6,17.6,27.7,18.5,26.6,18.5z M26.6,15.4c-0.6,0-1,0.5-1,1c0,0.6,0.5,1,1,1c0.6,0,1-0.5,1-1C27.6,15.9,27.1,15.4,26.6,15.4z"/>
	<path class="st3" d="M46,32.7c-1.1,0-2.1-0.9-2.1-2.1c0-1.1,0.9-2.1,2.1-2.1c1.1,0,2.1,0.9,2.1,2.1C48.1,31.7,47.2,32.7,46,32.7z
		 M46,29.6c-0.6,0-1,0.5-1,1c0,0.6,0.5,1,1,1c0.6,0,1-0.5,1-1C47.1,30,46.6,29.6,46,29.6z"/>
	<path class="st5" d="M24.7,37.8c-1.1,0-2.1-0.9-2.1-2.1c0-1.1,0.9-2.1,2.1-2.1c1.1,0,2.1,0.9,2.1,2.1
		C26.8,36.9,25.9,37.8,24.7,37.8z M24.7,34.7c-0.6,0-1,0.5-1,1c0,0.6,0.5,1,1,1c0.6,0,1-0.5,1-1C25.8,35.2,25.3,34.7,24.7,34.7z"/>
	<path class="st6" d="M41.2,45.4c-1.1,0-2.1-0.9-2.1-2.1c0-1.1,0.9-2.1,2.1-2.1c1.1,0,2.1,0.9,2.1,2.1
		C43.2,44.5,42.3,45.4,41.2,45.4z M41.2,42.3c-0.6,0-1,0.5-1,1c0,0.6,0.5,1,1,1c0.6,0,1-0.5,1-1C42.2,42.8,41.7,42.3,41.2,42.3z"/>
	<path class="st3" d="M24.7,52.6c0-0.6-0.5-1-1-1c-0.6,0-1,0.5-1,1h-1c0-1.1,0.9-2.1,2.1-2.1c1.1,0,2.1,0.9,2.1,2.1H24.7z"/>
	<path class="st3" d="M22.7,0c0,0.6,0.5,1,1,1c0.6,0,1-0.5,1-1h1c0,1.1-0.9,2.1-2.1,2.1c-1.1,0-2.1-0.9-2.1-2.1H22.7z"/>
	<circle class="st2" cx="3" cy="4.4" r="1.3"/>
	<circle class="st7" cx="15.8" cy="23.8" r="1.3"/>
	<circle class="st6" cx="3.4" cy="19.4" r="1.3"/>
	<circle class="st7" cx="5.1" cy="38.7" r="1.3"/>
	<circle class="st7" cx="27.5" cy="44.4" r="1.3"/>
	<path class="st2" d="M37.8,52.6c0-0.7,0.6-1.3,1.3-1.3s1.3,0.6,1.3,1.3H37.8z"/>
	<path class="st2" d="M40.4,0c0,0.7-0.6,1.3-1.3,1.3S37.8,0.7,37.8,0H40.4z"/>
	<circle class="st6" cx="38.6" cy="29.3" r="1.3"/>
	<path class="st8" d="M17.3,29.9c-0.2-0.1-0.4-0.3-0.4-0.5c0-0.3,0.3-0.5,0.6-0.5c1,0.1,1.8-0.1,2.3-0.6c0.7-0.7,0.7-1.8,0.7-1.8
		c0-0.3,0.2-0.5,0.5-0.5c0.3,0,0.5,0.2,0.5,0.5c0,0.1,0,1.6-1,2.6c-0.7,0.7-1.8,1-3.1,0.9C17.4,29.9,17.3,29.9,17.3,29.9z"/>
	<path class="st2" d="M39.6,21.4c0.2,0.1,0.3,0.4,0.2,0.6c-0.1,0.3-0.4,0.4-0.7,0.3c-0.9-0.4-1.7-0.5-2.4-0.2
		c-0.9,0.4-1.3,1.4-1.3,1.4c-0.1,0.3-0.4,0.4-0.7,0.3c-0.3-0.1-0.4-0.4-0.3-0.7c0-0.1,0.5-1.5,1.9-2.1c0.9-0.4,2-0.3,3.2,0.2
		C39.6,21.4,39.6,21.4,39.6,21.4z"/>
	<path class="st9" d="M49.2,47.6c0.2,0.1,0.4,0.3,0.4,0.5c0,0.3-0.3,0.5-0.6,0.5c-1-0.1-1.8,0.1-2.3,0.6c-0.7,0.7-0.7,1.8-0.7,1.8
		c0,0.3-0.2,0.5-0.5,0.5c-0.3,0-0.5-0.2-0.5-0.5c0-0.1,0-1.6,1-2.6c0.7-0.7,1.8-1,3.1-0.9C49.1,47.5,49.1,47.6,49.2,47.6z"/>
	<path class="st4" d="M12.4,50.4c-0.1,0-0.1,0-0.2,0c-0.2-0.1-0.3-0.3-0.3-0.5l0.4-6.9l-2.7,2.1C9.3,45.3,9,45.2,8.8,45
		c-0.2-0.2-0.1-0.6,0.1-0.7l3.6-2.8c0.2-0.1,0.4-0.1,0.6-0.1c0.2,0.1,0.3,0.3,0.3,0.5L13,48.4l4-4.6c0.1-0.2,0.4-0.2,0.6-0.1
		c0.2,0.1,0.3,0.3,0.3,0.5L17.7,47l2.5-1.6c0.2-0.2,0.6-0.1,0.7,0.2c0.2,0.2,0.1,0.6-0.2,0.7l-3.3,2.1c-0.2,0.1-0.4,0.1-0.5,0
		c-0.2-0.1-0.3-0.3-0.3-0.5l0.1-2.3l-4,4.6C12.6,50.3,12.5,50.4,12.4,50.4z"/>
	<path class="st6" d="M2.5,46.1c0-0.1,0.1-0.1,0.1-0.2c0.2-0.2,0.6-0.1,0.7,0.1l2.2,3.1c0.2,0.2,0.1,0.6-0.1,0.7
		c-0.2,0.2-0.6,0.1-0.7-0.1l-2.2-3.1C2.4,46.5,2.4,46.3,2.5,46.1z"/>
	<path class="st10" d="M24.4,8.6c0,0.1-0.1,0.1-0.1,0.2c-0.2,0.2-0.5,0.2-0.7,0L21,6c-0.2-0.2-0.2-0.5,0-0.7c0.2-0.2,0.5-0.2,0.7,0
		L24.4,8C24.5,8.2,24.5,8.4,24.4,8.6z"/>
	<path class="st11" d="M33.6,17.6c-0.1,0-0.1,0-0.2-0.1c-0.2-0.1-0.3-0.5-0.2-0.7l1.9-3.3c0.1-0.2,0.5-0.3,0.7-0.2
		c0.2,0.1,0.3,0.5,0.2,0.7l-1.9,3.3C34.1,17.5,33.8,17.6,33.6,17.6z"/>
	<path class="st5" d="M35.8,3.3c0.1,0,0.1-0.1,0.2-0.1c0.3,0,0.5,0.2,0.6,0.5l0.2,3.8c0,0.3-0.2,0.5-0.5,0.6c-0.3,0-0.5-0.2-0.6-0.5
		l-0.2-3.8C35.5,3.6,35.6,3.4,35.8,3.3z"/>
	<path class="st10" d="M47.8,40.3c0,0.1-0.1,0.1-0.1,0.2c-0.2,0.2-0.5,0.2-0.7,0l-2.6-2.8c-0.2-0.2-0.2-0.5,0-0.7
		c0.2-0.2,0.5-0.2,0.7,0l2.6,2.8C47.9,39.9,47.9,40.1,47.8,40.3z"/>
	<path class="st8" d="M31.1,49.9c-0.1,0-0.1-0.1-0.1-0.2c-0.1-0.3,0-0.6,0.2-0.7l3.4-1.8c0.3-0.1,0.6,0,0.7,0.2
		c0.1,0.3,0,0.6-0.2,0.7l-3.4,1.8C31.4,50,31.2,50,31.1,49.9z"/>
	<path class="st9" d="M23.8,22.1c-0.1-0.1-0.1-0.2,0-0.4c0.1-0.3,0.4-0.4,0.7-0.3l5.2,1.7c0.2,0.1,0.3,0.2,0.3,0.3
		c0,0.2,0,0.3-0.1,0.5l-2,2.5l4.9,1.2c0.2,0,0.3,0.1,0.3,0.3c0.1,0.1,0.1,0.3,0,0.5l-2.3,4.5c-0.1,0.3-0.4,0.4-0.7,0.2
		c-0.3-0.1-0.4-0.4-0.2-0.7l2-3.9l-5.1-1.3c-0.2,0-0.3-0.2-0.4-0.3c-0.1-0.2,0-0.4,0.1-0.5l2.1-2.6l-4.5-1.5
		C23.9,22.3,23.8,22.2,23.8,22.1z"/>
	<path class="st1" d="M29.6,11.8c-0.3,0-0.5-0.2-0.5-0.5c0-0.3,0.2-0.5,0.5-0.6c0.4,0,0.7-0.2,1-0.6c0.3-0.4,0.4-0.8,0.4-1.4
		c0-0.5-0.2-1-0.5-1.3c-0.3-0.3-0.7-0.5-1-0.4c-0.3,0-0.5-0.2-0.6-0.5s0.2-0.5,0.5-0.6c0.7,0,1.3,0.2,1.9,0.8
		c0.5,0.5,0.8,1.2,0.8,1.9s-0.2,1.5-0.6,2C30.9,11.4,30.3,11.7,29.6,11.8C29.6,11.8,29.6,11.8,29.6,11.8z"/>
	<path class="st2" d="M31.9,40.2C31.9,40.2,31.9,40.2,31.9,40.2c0-0.2-0.3-1.6,0.6-2.4c0.6-0.6,1.6-0.7,2.9-0.4
		c0.9,0.2,1.5,0.2,1.9-0.2c0.7-0.6,0.6-1.8,0.6-1.9c0-0.3,0.2-0.5,0.5-0.6c0.3,0,0.5,0.2,0.6,0.5c0,0.1,0.1,1.8-1,2.7
		c-0.7,0.6-1.7,0.7-2.9,0.4c-0.6-0.2-1.5-0.3-2,0.1c-0.5,0.4-0.4,1.3-0.3,1.4c0,0.3-0.1,0.6-0.4,0.6C32.2,40.6,32,40.5,31.9,40.2z"
		/>
</g>
</svg>
