<?xml version="1.0" encoding="utf-8"?>
<!-- Generator: Adobe Illustrator 19.0.1, SVG Export Plug-In . SVG Version: 6.00 Build 0)  -->
<svg version="1.1" id="Layer_1" xmlns="http://www.w3.org/2000/svg" xmlns:xlink="http://www.w3.org/1999/xlink" x="0px" y="0px"
	 viewBox="0 0 255.7 220.3" enable-background="new 0 0 255.7 220.3" xml:space="preserve">
<g>
	<g>
		<g>
			
				<rect x="131" y="74.4" transform="matrix(0.9034 0.4287 -0.4287 0.9034 65.1325 -62.0094)" fill="#99A8F8" width="78.4" height="78.4"/>
		</g>
		<polygon fill="#78CCC7" points="222.4,95 151.6,61.4 182.2,52.9 251.5,86.7 		"/>
		<polygon fill="#282153" points="222.4,95 188.8,165.8 219,154.7 251.5,86.7 		"/>
	</g>
	<g>
		<line fill="none" stroke="#FDC5BA" stroke-width="7" stroke-miterlimit="10" x1="7.9" y1="5.5" x2="7.9" y2="155.8"/>
		<line fill="none" stroke="#FDC5BA" stroke-width="7" stroke-miterlimit="10" x1="38" y1="5.5" x2="38" y2="155.8"/>
		<line fill="none" stroke="#FDC5BA" stroke-width="7" stroke-miterlimit="10" x1="68.1" y1="5.5" x2="68.1" y2="155.8"/>
	</g>
	<path fill="#EF7FB2" d="M107.6,191c-29.7,0-53.8-24.1-53.8-53.8c0-29.7,24.1-53.8,53.8-53.8l-1.1-24.2c-43.1,0-78,34.9-78,78
		s34.9,78,78,78L107.6,191z"/>
</g>
</svg>
