<?xml version="1.0" encoding="utf-8"?>
<!-- Generator: Adobe Illustrator 19.0.1, SVG Export Plug-In . SVG Version: 6.00 Build 0)  -->
<svg version="1.1" id="Layer_1" xmlns="http://www.w3.org/2000/svg" xmlns:xlink="http://www.w3.org/1999/xlink" x="0px" y="0px"
	 viewBox="0 0 315.4 214.1" enable-background="new 0 0 315.4 214.1" xml:space="preserve">
<g>
	<defs>
		<circle id="SVGID_1_" cx="138.3" cy="84.6" r="84.6"/>
	</defs>
	<clipPath id="SVGID_2_">
		<use xlink:href="#SVGID_1_"  overflow="visible"/>
	</clipPath>
	<g clip-path="url(#SVGID_2_)">
		<circle fill="#DAA0F1" cx="54.2" cy="2.1" r="3.6"/>
		<circle fill="#DAA0F1" cx="54.2" cy="16" r="3.6"/>
		<circle fill="#DAA0F1" cx="54.2" cy="29.8" r="3.6"/>
		<circle fill="#DAA0F1" cx="54.2" cy="43.7" r="3.6"/>
		<circle fill="#DAA0F1" cx="54.2" cy="57.5" r="3.6"/>
		<circle fill="#DAA0F1" cx="54.2" cy="71.4" r="3.6"/>
		<circle fill="#DAA0F1" cx="54.2" cy="85.2" r="3.6"/>
		<circle fill="#DAA0F1" cx="54.2" cy="99.1" r="3.6"/>
		<circle fill="#DAA0F1" cx="54.2" cy="112.9" r="3.6"/>
		<circle fill="#DAA0F1" cx="54.2" cy="126.8" r="3.6"/>
		<circle fill="#DAA0F1" cx="54.2" cy="140.6" r="3.6"/>
		<circle fill="#DAA0F1" cx="54.2" cy="154.5" r="3.6"/>
		<circle fill="#DAA0F1" cx="54.2" cy="168.3" r="3.6"/>
		<circle fill="#DAA0F1" cx="66.9" cy="2.1" r="3.6"/>
		<circle fill="#DAA0F1" cx="66.9" cy="16" r="3.6"/>
		<circle fill="#DAA0F1" cx="66.9" cy="29.8" r="3.6"/>
		<circle fill="#DAA0F1" cx="66.9" cy="43.7" r="3.6"/>
		<circle fill="#DAA0F1" cx="66.9" cy="57.5" r="3.6"/>
		<circle fill="#DAA0F1" cx="66.9" cy="71.4" r="3.6"/>
		<circle fill="#DAA0F1" cx="66.9" cy="85.2" r="3.6"/>
		<circle fill="#DAA0F1" cx="66.9" cy="99.1" r="3.6"/>
		<circle fill="#DAA0F1" cx="66.9" cy="112.9" r="3.6"/>
		<circle fill="#DAA0F1" cx="66.9" cy="126.8" r="3.6"/>
		<circle fill="#DAA0F1" cx="66.9" cy="140.6" r="3.6"/>
		<circle fill="#DAA0F1" cx="66.9" cy="154.5" r="3.6"/>
		<circle fill="#DAA0F1" cx="66.9" cy="168.3" r="3.6"/>
		<circle fill="#DAA0F1" cx="79.7" cy="2.1" r="3.6"/>
		<circle fill="#DAA0F1" cx="79.7" cy="16" r="3.6"/>
		<circle fill="#DAA0F1" cx="79.7" cy="29.8" r="3.6"/>
		<circle fill="#DAA0F1" cx="79.7" cy="43.7" r="3.6"/>
		<circle fill="#DAA0F1" cx="79.7" cy="57.5" r="3.6"/>
		<circle fill="#DAA0F1" cx="79.7" cy="71.4" r="3.6"/>
		<circle fill="#DAA0F1" cx="79.7" cy="85.2" r="3.6"/>
		<circle fill="#DAA0F1" cx="79.7" cy="99.1" r="3.6"/>
		<circle fill="#DAA0F1" cx="79.7" cy="112.9" r="3.6"/>
		<circle fill="#DAA0F1" cx="79.7" cy="126.8" r="3.6"/>
		<circle fill="#DAA0F1" cx="79.7" cy="140.6" r="3.6"/>
		<circle fill="#DAA0F1" cx="79.7" cy="154.5" r="3.6"/>
		<circle fill="#DAA0F1" cx="79.7" cy="168.3" r="3.6"/>
		<circle fill="#DAA0F1" cx="92.5" cy="2.1" r="3.6"/>
		<circle fill="#DAA0F1" cx="92.5" cy="16" r="3.6"/>
		<circle fill="#DAA0F1" cx="92.5" cy="29.8" r="3.6"/>
		<circle fill="#DAA0F1" cx="92.5" cy="43.7" r="3.6"/>
		<circle fill="#DAA0F1" cx="92.5" cy="57.5" r="3.6"/>
		<circle fill="#DAA0F1" cx="92.5" cy="71.4" r="3.6"/>
		<circle fill="#DAA0F1" cx="92.5" cy="85.2" r="3.6"/>
		<circle fill="#DAA0F1" cx="92.5" cy="99.1" r="3.6"/>
		<circle fill="#DAA0F1" cx="92.5" cy="112.9" r="3.6"/>
		<circle fill="#DAA0F1" cx="92.5" cy="126.8" r="3.6"/>
		<circle fill="#DAA0F1" cx="92.5" cy="140.6" r="3.6"/>
		<circle fill="#DAA0F1" cx="92.5" cy="154.5" r="3.6"/>
		<circle fill="#DAA0F1" cx="92.5" cy="168.3" r="3.6"/>
		<circle fill="#DAA0F1" cx="105.3" cy="2.1" r="3.6"/>
		<circle fill="#DAA0F1" cx="105.3" cy="16" r="3.6"/>
		<circle fill="#DAA0F1" cx="105.3" cy="29.8" r="3.6"/>
		<circle fill="#DAA0F1" cx="105.3" cy="43.7" r="3.6"/>
		<circle fill="#DAA0F1" cx="105.3" cy="57.5" r="3.6"/>
		<circle fill="#DAA0F1" cx="105.3" cy="71.4" r="3.6"/>
		<circle fill="#DAA0F1" cx="105.3" cy="85.2" r="3.6"/>
		<circle fill="#DAA0F1" cx="105.3" cy="99.1" r="3.6"/>
		<circle fill="#DAA0F1" cx="105.3" cy="112.9" r="3.6"/>
		<circle fill="#DAA0F1" cx="105.3" cy="126.8" r="3.6"/>
		<circle fill="#DAA0F1" cx="105.3" cy="140.6" r="3.6"/>
		<circle fill="#DAA0F1" cx="105.3" cy="154.5" r="3.6"/>
		<circle fill="#DAA0F1" cx="105.3" cy="168.3" r="3.6"/>
		<circle fill="#DAA0F1" cx="118.1" cy="2.1" r="3.6"/>
		<circle fill="#DAA0F1" cx="118.1" cy="16" r="3.6"/>
		<circle fill="#DAA0F1" cx="118.1" cy="29.8" r="3.6"/>
		<circle fill="#DAA0F1" cx="118.1" cy="43.7" r="3.6"/>
		<circle fill="#DAA0F1" cx="118.1" cy="57.5" r="3.6"/>
		<circle fill="#DAA0F1" cx="118.1" cy="71.4" r="3.6"/>
		<circle fill="#DAA0F1" cx="118.1" cy="85.2" r="3.6"/>
		<circle fill="#DAA0F1" cx="118.1" cy="99.1" r="3.6"/>
		<circle fill="#DAA0F1" cx="118.1" cy="112.9" r="3.6"/>
		<circle fill="#DAA0F1" cx="118.1" cy="126.8" r="3.6"/>
		<circle fill="#DAA0F1" cx="118.1" cy="140.6" r="3.6"/>
		<circle fill="#DAA0F1" cx="118.1" cy="154.5" r="3.6"/>
		<circle fill="#DAA0F1" cx="118.1" cy="168.3" r="3.6"/>
		<circle fill="#DAA0F1" cx="130.9" cy="2.1" r="3.6"/>
		<circle fill="#DAA0F1" cx="130.9" cy="16" r="3.6"/>
		<circle fill="#DAA0F1" cx="130.9" cy="29.8" r="3.6"/>
		<circle fill="#DAA0F1" cx="130.9" cy="43.7" r="3.6"/>
		<circle fill="#DAA0F1" cx="130.9" cy="57.5" r="3.6"/>
		<circle fill="#DAA0F1" cx="130.9" cy="71.4" r="3.6"/>
		<circle fill="#DAA0F1" cx="130.9" cy="85.2" r="3.6"/>
		<circle fill="#DAA0F1" cx="130.9" cy="99.1" r="3.6"/>
		<circle fill="#DAA0F1" cx="130.9" cy="112.9" r="3.6"/>
		<circle fill="#DAA0F1" cx="130.9" cy="126.8" r="3.6"/>
		<circle fill="#DAA0F1" cx="130.9" cy="140.6" r="3.6"/>
		<circle fill="#DAA0F1" cx="130.9" cy="154.5" r="3.6"/>
		<circle fill="#DAA0F1" cx="130.9" cy="168.3" r="3.6"/>
		<circle fill="#DAA0F1" cx="143.7" cy="2.1" r="3.6"/>
		<circle fill="#DAA0F1" cx="143.7" cy="16" r="3.6"/>
		<circle fill="#DAA0F1" cx="143.7" cy="29.8" r="3.6"/>
		<circle fill="#DAA0F1" cx="143.7" cy="43.7" r="3.6"/>
		<circle fill="#DAA0F1" cx="143.7" cy="57.5" r="3.6"/>
		<circle fill="#DAA0F1" cx="143.7" cy="71.4" r="3.6"/>
		<circle fill="#DAA0F1" cx="143.7" cy="85.2" r="3.6"/>
		<circle fill="#DAA0F1" cx="143.7" cy="99.1" r="3.6"/>
		<circle fill="#DAA0F1" cx="143.7" cy="112.9" r="3.6"/>
		<circle fill="#DAA0F1" cx="143.7" cy="126.8" r="3.6"/>
		<circle fill="#DAA0F1" cx="143.7" cy="140.6" r="3.6"/>
		<circle fill="#DAA0F1" cx="143.7" cy="154.5" r="3.6"/>
		<circle fill="#DAA0F1" cx="143.7" cy="168.3" r="3.6"/>
		<circle fill="#DAA0F1" cx="156.4" cy="2.1" r="3.6"/>
		<circle fill="#DAA0F1" cx="156.4" cy="16" r="3.6"/>
		<circle fill="#DAA0F1" cx="156.4" cy="29.8" r="3.6"/>
		<circle fill="#DAA0F1" cx="156.4" cy="43.7" r="3.6"/>
		<circle fill="#DAA0F1" cx="156.4" cy="57.5" r="3.6"/>
		<circle fill="#DAA0F1" cx="156.4" cy="71.4" r="3.6"/>
		<circle fill="#DAA0F1" cx="156.4" cy="85.2" r="3.6"/>
		<circle fill="#DAA0F1" cx="156.4" cy="99.1" r="3.6"/>
		<circle fill="#DAA0F1" cx="156.4" cy="112.9" r="3.6"/>
		<circle fill="#DAA0F1" cx="156.4" cy="126.8" r="3.6"/>
		<circle fill="#DAA0F1" cx="156.4" cy="140.6" r="3.6"/>
		<circle fill="#DAA0F1" cx="156.4" cy="154.5" r="3.6"/>
		<circle fill="#DAA0F1" cx="156.4" cy="168.3" r="3.6"/>
		<circle fill="#DAA0F1" cx="169.2" cy="2.1" r="3.6"/>
		<circle fill="#DAA0F1" cx="169.2" cy="16" r="3.6"/>
		<circle fill="#DAA0F1" cx="169.2" cy="29.8" r="3.6"/>
		<circle fill="#DAA0F1" cx="169.2" cy="43.7" r="3.6"/>
		<circle fill="#DAA0F1" cx="169.2" cy="57.5" r="3.6"/>
		<circle fill="#DAA0F1" cx="169.2" cy="71.4" r="3.6"/>
		<circle fill="#DAA0F1" cx="169.2" cy="85.2" r="3.6"/>
		<circle fill="#DAA0F1" cx="169.2" cy="99.1" r="3.6"/>
		<circle fill="#DAA0F1" cx="169.2" cy="112.9" r="3.6"/>
		<circle fill="#DAA0F1" cx="169.2" cy="126.8" r="3.6"/>
		<circle fill="#DAA0F1" cx="169.2" cy="140.6" r="3.6"/>
		<circle fill="#DAA0F1" cx="169.2" cy="154.5" r="3.6"/>
		<circle fill="#DAA0F1" cx="169.2" cy="168.3" r="3.6"/>
		<circle fill="#DAA0F1" cx="182" cy="2.1" r="3.6"/>
		<circle fill="#DAA0F1" cx="182" cy="16" r="3.6"/>
		<circle fill="#DAA0F1" cx="182" cy="29.8" r="3.6"/>
		<circle fill="#DAA0F1" cx="182" cy="43.7" r="3.6"/>
		<circle fill="#DAA0F1" cx="182" cy="57.5" r="3.6"/>
		<circle fill="#DAA0F1" cx="182" cy="71.4" r="3.6"/>
		<circle fill="#DAA0F1" cx="182" cy="85.2" r="3.6"/>
		<circle fill="#DAA0F1" cx="182" cy="99.1" r="3.6"/>
		<circle fill="#DAA0F1" cx="182" cy="112.9" r="3.6"/>
		<circle fill="#DAA0F1" cx="182" cy="126.8" r="3.6"/>
		<circle fill="#DAA0F1" cx="182" cy="140.6" r="3.6"/>
		<circle fill="#DAA0F1" cx="182" cy="154.5" r="3.6"/>
		<circle fill="#DAA0F1" cx="182" cy="168.3" r="3.6"/>
		<circle fill="#DAA0F1" cx="194.8" cy="2.1" r="3.6"/>
		<circle fill="#DAA0F1" cx="194.8" cy="16" r="3.6"/>
		<circle fill="#DAA0F1" cx="194.8" cy="29.8" r="3.6"/>
		<circle fill="#DAA0F1" cx="194.8" cy="43.7" r="3.6"/>
		<circle fill="#DAA0F1" cx="194.8" cy="57.5" r="3.6"/>
		<circle fill="#DAA0F1" cx="194.8" cy="71.4" r="3.6"/>
		<circle fill="#DAA0F1" cx="194.8" cy="85.2" r="3.6"/>
		<circle fill="#DAA0F1" cx="194.8" cy="99.1" r="3.6"/>
		<circle fill="#DAA0F1" cx="194.8" cy="112.9" r="3.6"/>
		<circle fill="#DAA0F1" cx="194.8" cy="126.8" r="3.6"/>
		<circle fill="#DAA0F1" cx="194.8" cy="140.6" r="3.6"/>
		<circle fill="#DAA0F1" cx="194.8" cy="154.5" r="3.6"/>
		<circle fill="#DAA0F1" cx="194.8" cy="168.3" r="3.6"/>
		<circle fill="#DAA0F1" cx="207.6" cy="2.1" r="3.6"/>
		<circle fill="#DAA0F1" cx="207.6" cy="16" r="3.6"/>
		<circle fill="#DAA0F1" cx="207.6" cy="29.8" r="3.6"/>
		<circle fill="#DAA0F1" cx="207.6" cy="43.7" r="3.6"/>
		<circle fill="#DAA0F1" cx="207.6" cy="57.5" r="3.6"/>
		<circle fill="#DAA0F1" cx="207.6" cy="71.4" r="3.6"/>
		<circle fill="#DAA0F1" cx="207.6" cy="85.2" r="3.6"/>
		<circle fill="#DAA0F1" cx="207.6" cy="99.1" r="3.6"/>
		<circle fill="#DAA0F1" cx="207.6" cy="112.9" r="3.6"/>
		<circle fill="#DAA0F1" cx="207.6" cy="126.8" r="3.6"/>
		<circle fill="#DAA0F1" cx="207.6" cy="140.6" r="3.6"/>
		<circle fill="#DAA0F1" cx="207.6" cy="154.5" r="3.6"/>
		<circle fill="#DAA0F1" cx="207.6" cy="168.3" r="3.6"/>
		<circle fill="#DAA0F1" cx="220.4" cy="2.1" r="3.6"/>
		<circle fill="#DAA0F1" cx="220.4" cy="16" r="3.6"/>
		<circle fill="#DAA0F1" cx="220.4" cy="29.8" r="3.6"/>
		<circle fill="#DAA0F1" cx="220.4" cy="43.7" r="3.6"/>
		<circle fill="#DAA0F1" cx="220.4" cy="57.5" r="3.6"/>
		<circle fill="#DAA0F1" cx="220.4" cy="71.4" r="3.6"/>
		<circle fill="#DAA0F1" cx="220.4" cy="85.2" r="3.6"/>
		<circle fill="#DAA0F1" cx="220.4" cy="99.1" r="3.6"/>
		<circle fill="#DAA0F1" cx="220.4" cy="112.9" r="3.6"/>
		<circle fill="#DAA0F1" cx="220.4" cy="126.8" r="3.6"/>
		<circle fill="#DAA0F1" cx="220.4" cy="140.6" r="3.6"/>
		<circle fill="#DAA0F1" cx="220.4" cy="154.5" r="3.6"/>
		<circle fill="#DAA0F1" cx="220.4" cy="168.3" r="3.6"/>
	</g>
</g>
<g>
	<path fill="#EF7FB2" d="M254.1,125.4C254.1,125.4,254.1,125.4,254.1,125.4c-12.6,0-21-7.4-22.6-19.9c-0.1-0.5-0.2-1-0.2-1.5
		c-1.1-9.2-7.4-15.5-15.7-15.5c0,0,0,0,0,0c-8.3,0-14.6,5.3-15.5,12.9l0,0c0,0-0.3,3.1-0.4,3.6l0,0.2c-1.6,12.2-10.4,20.1-22.6,20.1
		c0,0,0,0,0,0c-11.8,0-21.2-8.3-22.5-19.7l-0.1-1.1c-0.6-9.7-6.8-16-15.8-16c0,0,0,0,0,0c-8.3,0-14.6,5.3-15.5,12.9
		c0,0-0.3,3.1-0.4,3.6l0,0.2c-1.6,12.2-10.4,20.1-22.6,20.1c0,0,0,0,0,0c-12.5,0-20.9-7.4-22.5-19.9c-0.1-0.5-0.2-1-0.2-1.5
		c-1.1-9.2-7.4-15.5-15.7-15.5c0,0,0,0,0,0c-8.3,0-14.6,5.3-15.5,12.9c0,0-0.3,3.1-0.4,3.6l0,0.2C44,117.1,35.1,125,22.9,125
		c0,0,0,0,0,0c-12.6,0-22.7-10.2-22.7-22.8l7,0c0,4.2,1.6,8.2,4.6,11.2c3,3,6.9,4.6,11.1,4.6c0,0,0,0,0,0c8.7,0,14.5-5.2,15.7-13.9
		c0-0.3,0.1-1.2,0.4-3.8c1.3-11.3,10.5-19.1,22.5-19.1c0,0,0,0,0,0c11.9,0,21.3,9,22.7,21.8l0,0.3c0,0.2,0,0.3,0,0.4l0.1,0.4
		c1.5,12.1,10.4,13.9,15.6,13.9c8.7,0,14.5-5.2,15.7-13.9c0-0.3,0.1-1.2,0.4-3.8c1.3-11.3,10.5-19.1,22.5-19.1c0,0,0,0,0,0
		c12.6,0,22,9.3,22.8,22.5l0.1,0.9c0.9,7.8,7.4,13.5,15.6,13.5c0,0,0,0,0,0c8.7,0,14.5-5.2,15.7-13.9c0-0.3,0.1-1.2,0.4-3.8
		c1.3-11.3,10.5-19.1,22.5-19.1c0,0,0,0,0,0c11.9,0,21.3,9,22.7,21.8l0,0.3c0,0.2,0,0.3,0,0.4l0.1,0.4c1.5,12.1,10.4,13.9,15.6,13.9
		c0,0,0,0,0,0c8.7,0,14.5-5.2,15.7-13.9c0-0.3,0.1-1.2,0.4-3.8c1.3-11.3,10.5-19.1,22.5-19.1c0,0,0,0,0,0
		c12.6,0,22.7,10.2,22.7,22.8l-7,0c0-8.7-7-15.8-15.7-15.8c0,0,0,0,0,0c-8.3,0-14.6,5.3-15.5,12.9c0,0-0.3,3.1-0.4,3.6l0,0.2
		C275.2,117.5,266.3,125.4,254.1,125.4z"/>
	<path fill="#EF7FB2" d="M254.1,164.8C254.1,164.8,254.1,164.8,254.1,164.8c-12.6,0-21-7.4-22.6-19.9c-0.1-0.5-0.2-1-0.2-1.5
		c-1.1-9.2-7.4-15.5-15.7-15.5c0,0,0,0,0,0c-8.3,0-14.6,5.3-15.5,12.9l0,0c0,0-0.3,3.1-0.4,3.6l0,0.2c-1.6,12.2-10.4,20.1-22.6,20.1
		c0,0,0,0,0,0c-11.8,0-21.2-8.3-22.5-19.7l-0.1-1.1c-0.6-9.7-6.8-16-15.8-16c0,0,0,0,0,0c-8.3,0-14.6,5.3-15.5,12.9
		c0,0-0.3,3.1-0.4,3.6l0,0.2c-1.6,12.2-10.4,20.1-22.6,20.1c0,0,0,0,0,0c-12.5,0-20.9-7.4-22.5-19.9c-0.1-0.5-0.2-1-0.2-1.5
		c-1.1-9.2-7.4-15.5-15.7-15.5c0,0,0,0,0,0c-8.3,0-14.6,5.3-15.5,12.9c0,0-0.3,3.1-0.4,3.6l0,0.2c-1.6,12.2-10.4,20.1-22.6,20.1
		c0,0,0,0,0,0c-6.1,0-11.8-2.4-16.1-6.7c-4.3-4.3-6.7-10-6.6-16.1l7,0c0,4.2,1.6,8.2,4.6,11.2c3,3,6.9,4.6,11.1,4.6c0,0,0,0,0,0
		c8.7,0,14.5-5.2,15.7-13.9c0-0.3,0.1-1.2,0.4-3.8c1.3-11.3,10.5-19.1,22.5-19.1c0,0,0,0,0,0c11.9,0,21.3,9,22.7,21.8l0,0.3
		c0,0.2,0,0.3,0,0.4l0.1,0.4c1.5,12.1,10.4,13.9,15.6,13.9c0,0,0,0,0,0c8.7,0,14.5-5.2,15.7-13.9c0-0.3,0.1-1.2,0.4-3.8
		c1.3-11.3,10.5-19.1,22.5-19.1c0,0,0,0,0,0c12.6,0,22,9.3,22.8,22.5l0.1,0.9c0.9,7.8,7.4,13.5,15.6,13.5c0,0,0,0,0,0
		c8.7,0,14.5-5.2,15.7-13.9c0-0.3,0.1-1.2,0.4-3.8c1.3-11.3,10.5-19.1,22.5-19.1c0,0,0,0,0,0c11.9,0,21.3,9,22.7,21.8l0,0.3
		c0,0.2,0,0.3,0,0.4l0.1,0.4c1.5,12.1,10.4,13.9,15.6,13.9c0,0,0,0,0,0c8.7,0,14.5-5.2,15.7-13.9c0-0.3,0.1-1.2,0.4-3.8
		c1.3-11.3,10.5-19.1,22.5-19.1c0,0,0,0,0,0c12.6,0,22.7,10.2,22.7,22.8l-7,0c0-8.7-7-15.8-15.7-15.8c0,0,0,0,0,0
		c-8.3,0-14.6,5.3-15.5,12.9c0,0-0.3,3.1-0.4,3.6l0,0.2C275.2,157,266.3,164.8,254.1,164.8z"/>
	<path fill="#EF7FB2" d="M254.1,204.3C254.1,204.3,254.1,204.3,254.1,204.3c-12.6,0-21-7.4-22.6-19.9c-0.1-0.5-0.2-1-0.2-1.5
		c-1.1-9.2-7.4-15.5-15.7-15.5c0,0,0,0,0,0c-8.3,0-14.6,5.3-15.5,12.9l0,0c0,0-0.3,3.1-0.4,3.6l0,0.2c-1.6,12.2-10.4,20.1-22.6,20.1
		c0,0,0,0,0,0c-11.8,0-21.2-8.3-22.5-19.7l-0.1-1.1c-0.6-9.7-6.8-16-15.8-16c0,0,0,0,0,0c-8.3,0-14.6,5.3-15.5,12.9
		c0,0-0.3,3.1-0.4,3.6l0,0.2c-1.6,12.2-10.4,20.1-22.6,20.1c0,0,0,0,0,0c-12.5,0-20.9-7.4-22.5-19.9c-0.1-0.5-0.2-1-0.2-1.5
		c-1.1-9.2-7.4-15.5-15.7-15.5c0,0,0,0,0,0c-8.3,0-14.6,5.3-15.5,12.9c0,0-0.3,3.1-0.4,3.6l0,0.2C44,196.1,35.1,204,22.9,204
		c0,0,0,0,0,0c-6.1,0-11.8-2.4-16.1-6.7c-4.3-4.3-6.7-10-6.6-16.1l7,0c0,4.2,1.6,8.2,4.6,11.2c3,3,6.9,4.6,11.1,4.6c0,0,0,0,0,0
		c8.7,0,14.5-5.2,15.7-13.9c0-0.3,0.1-1.2,0.4-3.8c1.3-11.3,10.5-19.1,22.5-19.1c0,0,0,0,0,0c11.9,0,21.3,9,22.7,21.8l0,0.3
		c0,0.2,0,0.3,0,0.4l0.1,0.4c1.5,12.1,10.4,13.9,15.6,13.9c0,0,0,0,0,0c8.7,0,14.5-5.2,15.7-13.9c0-0.3,0.1-1.2,0.4-3.8
		c1.3-11.3,10.5-19.1,22.5-19.1c0,0,0,0,0,0c12.6,0,22,9.3,22.8,22.5l0.1,0.9c0.9,7.8,7.4,13.5,15.6,13.5c0,0,0,0,0,0
		c8.7,0,14.5-5.2,15.7-13.9c0-0.3,0.1-1.2,0.4-3.8c1.3-11.3,10.5-19.1,22.5-19.1c0,0,0,0,0,0c11.9,0,21.3,9,22.7,21.8l0,0.3
		c0,0.2,0,0.3,0,0.4l0.1,0.4c1.5,12.1,10.4,13.9,15.6,13.9c0,0,0,0,0,0c8.7,0,14.5-5.2,15.7-13.9c0-0.3,0.1-1.2,0.4-3.8
		c1.3-11.3,10.5-19.1,22.5-19.1c0,0,0,0,0,0c6.1,0,11.8,2.4,16.1,6.7c4.3,4.3,6.7,10,6.6,16.1l-7,0c0-4.2-1.6-8.2-4.6-11.2
		c-3-3-6.9-4.6-11.1-4.6c0,0,0,0,0,0c-8.3,0-14.6,5.3-15.5,12.9c0,0-0.3,3.1-0.4,3.6l0,0.2C275.2,196.5,266.3,204.3,254.1,204.3z"/>
</g>
</svg>
