<?xml version="1.0" encoding="utf-8"?>
<!-- Generator: Adobe Illustrator 19.0.1, SVG Export Plug-In . SVG Version: 6.00 Build 0)  -->
<svg version="1.1" id="Layer_1" xmlns="http://www.w3.org/2000/svg" xmlns:xlink="http://www.w3.org/1999/xlink" x="0px" y="0px"
	 viewBox="0 0 147.7 159.7" enable-background="new 0 0 147.7 159.7" xml:space="preserve">
<polygon fill="#99A8F8" points="5.2,107.3 79.6,63 80.8,149.6 "/>
<g>
	<defs>
		<polygon id="SVGID_1_" points="1.3,84.5 136.8,0 142.3,159.7 		"/>
	</defs>
	<clipPath id="SVGID_2_">
		<use xlink:href="#SVGID_1_"  overflow="visible"/>
	</clipPath>
	<g clip-path="url(#SVGID_2_)">
		<circle fill="#282153" cx="68.2" cy="-37.4" r="3.6"/>
		<circle fill="#282153" cx="61.7" cy="-25.2" r="3.6"/>
		<circle fill="#282153" cx="55.2" cy="-13" r="3.6"/>
		<circle fill="#282153" cx="48.7" cy="-0.7" r="3.6"/>
		<circle fill="#282153" cx="42.1" cy="11.5" r="3.6"/>
		<circle fill="#282153" cx="35.6" cy="23.7" r="3.6"/>
		<circle fill="#282153" cx="29.1" cy="35.9" r="3.6"/>
		<circle fill="#282153" cx="22.6" cy="48.2" r="3.6"/>
		<circle fill="#282153" cx="16.1" cy="60.4" r="3.6"/>
		<circle fill="#282153" cx="9.6" cy="72.6" r="3.6"/>
		<circle fill="#282153" cx="3.1" cy="84.8" r="3.6"/>
		<circle fill="#282153" cx="-3.4" cy="97.1" r="3.6"/>
		<circle fill="#282153" cx="-9.9" cy="109.3" r="3.6"/>
		<circle fill="#282153" cx="79.5" cy="-31.4" r="3.6"/>
		<circle fill="#282153" cx="73" cy="-19.2" r="3.6"/>
		<circle fill="#282153" cx="66.5" cy="-7" r="3.6"/>
		<circle fill="#282153" cx="59.9" cy="5.3" r="3.6"/>
		<circle fill="#282153" cx="53.4" cy="17.5" r="3.6"/>
		<circle fill="#282153" cx="46.9" cy="29.7" r="3.6"/>
		<circle fill="#282153" cx="40.4" cy="41.9" r="3.6"/>
		<circle fill="#282153" cx="33.9" cy="54.2" r="3.6"/>
		<circle fill="#282153" cx="27.4" cy="66.4" r="3.6"/>
		<circle fill="#282153" cx="20.9" cy="78.6" r="3.6"/>
		<circle fill="#282153" cx="14.4" cy="90.9" r="3.6"/>
		<circle fill="#282153" cx="7.8" cy="103.1" r="3.6"/>
		<circle fill="#282153" cx="1.3" cy="115.3" r="3.6"/>
		<circle fill="#282153" cx="90.8" cy="-25.4" r="3.6"/>
		<circle fill="#282153" cx="84.3" cy="-13.2" r="3.6"/>
		<circle fill="#282153" cx="77.7" cy="-0.9" r="3.6"/>
		<circle fill="#282153" cx="71.2" cy="11.3" r="3.6"/>
		<circle fill="#282153" cx="64.7" cy="23.5" r="3.6"/>
		<circle fill="#282153" cx="58.2" cy="35.7" r="3.6"/>
		<circle fill="#282153" cx="51.7" cy="48" r="3.6"/>
		<circle fill="#282153" cx="45.2" cy="60.2" r="3.6"/>
		<circle fill="#282153" cx="38.7" cy="72.4" r="3.6"/>
		<circle fill="#282153" cx="32.2" cy="84.6" r="3.6"/>
		<circle fill="#282153" cx="25.6" cy="96.9" r="3.6"/>
		<circle fill="#282153" cx="19.1" cy="109.1" r="3.6"/>
		<circle fill="#282153" cx="12.6" cy="121.3" r="3.6"/>
		<circle fill="#282153" cx="102.1" cy="-19.4" r="3.6"/>
		<circle fill="#282153" cx="95.5" cy="-7.2" r="3.6"/>
		<circle fill="#282153" cx="89" cy="5.1" r="3.6"/>
		<circle fill="#282153" cx="82.5" cy="17.3" r="3.6"/>
		<circle fill="#282153" cx="76" cy="29.5" r="3.6"/>
		<circle fill="#282153" cx="69.5" cy="41.7" r="3.6"/>
		<circle fill="#282153" cx="63" cy="54" r="3.6"/>
		<circle fill="#282153" cx="56.5" cy="66.2" r="3.6"/>
		<circle fill="#282153" cx="50" cy="78.4" r="3.6"/>
		<circle fill="#282153" cx="43.4" cy="90.6" r="3.6"/>
		<circle fill="#282153" cx="36.9" cy="102.9" r="3.6"/>
		<circle fill="#282153" cx="30.4" cy="115.1" r="3.6"/>
		<circle fill="#282153" cx="23.9" cy="127.3" r="3.6"/>
		<circle fill="#282153" cx="113.3" cy="-13.4" r="3.6"/>
		<circle fill="#282153" cx="106.8" cy="-1.2" r="3.6"/>
		<circle fill="#282153" cx="100.3" cy="11.1" r="3.6"/>
		<circle fill="#282153" cx="93.8" cy="23.3" r="3.6"/>
		<circle fill="#282153" cx="87.3" cy="35.5" r="3.6"/>
		<circle fill="#282153" cx="80.8" cy="47.8" r="3.6"/>
		<circle fill="#282153" cx="74.3" cy="60" r="3.6"/>
		<circle fill="#282153" cx="67.8" cy="72.2" r="3.6"/>
		<circle fill="#282153" cx="61.2" cy="84.4" r="3.6"/>
		<circle fill="#282153" cx="54.7" cy="96.7" r="3.6"/>
		<circle fill="#282153" cx="48.2" cy="108.9" r="3.6"/>
		<circle fill="#282153" cx="41.7" cy="121.1" r="3.6"/>
		<circle fill="#282153" cx="35.2" cy="133.3" r="3.6"/>
		<circle fill="#282153" cx="124.6" cy="-7.4" r="3.6"/>
		<circle fill="#282153" cx="118.1" cy="4.9" r="3.6"/>
		<circle fill="#282153" cx="111.6" cy="17.1" r="3.6"/>
		<circle fill="#282153" cx="105.1" cy="29.3" r="3.6"/>
		<circle fill="#282153" cx="98.6" cy="41.5" r="3.6"/>
		<circle fill="#282153" cx="92.1" cy="53.8" r="3.6"/>
		<circle fill="#282153" cx="85.6" cy="66" r="3.6"/>
		<circle fill="#282153" cx="79" cy="78.2" r="3.6"/>
		<circle fill="#282153" cx="72.5" cy="90.4" r="3.6"/>
		<circle fill="#282153" cx="66" cy="102.7" r="3.6"/>
		<circle fill="#282153" cx="59.5" cy="114.9" r="3.6"/>
		<circle fill="#282153" cx="53" cy="127.1" r="3.6"/>
		<circle fill="#282153" cx="46.5" cy="139.3" r="3.6"/>
		<circle fill="#282153" cx="135.9" cy="-1.4" r="3.6"/>
		<circle fill="#282153" cx="129.4" cy="10.9" r="3.6"/>
		<circle fill="#282153" cx="122.9" cy="23.1" r="3.6"/>
		<circle fill="#282153" cx="116.4" cy="35.3" r="3.6"/>
		<circle fill="#282153" cx="109.9" cy="47.5" r="3.6"/>
		<circle fill="#282153" cx="103.4" cy="59.8" r="3.6"/>
		<circle fill="#282153" cx="96.8" cy="72" r="3.6"/>
		<circle fill="#282153" cx="90.3" cy="84.2" r="3.6"/>
		<circle fill="#282153" cx="83.8" cy="96.5" r="3.6"/>
		<circle fill="#282153" cx="77.3" cy="108.7" r="3.6"/>
		<circle fill="#282153" cx="70.8" cy="120.9" r="3.6"/>
		<circle fill="#282153" cx="64.3" cy="133.1" r="3.6"/>
		<circle fill="#282153" cx="57.8" cy="145.4" r="3.6"/>
		<circle fill="#282153" cx="147.2" cy="4.7" r="3.6"/>
		<circle fill="#282153" cx="140.7" cy="16.9" r="3.6"/>
		<circle fill="#282153" cx="134.2" cy="29.1" r="3.6"/>
		<circle fill="#282153" cx="127.7" cy="41.3" r="3.6"/>
		<circle fill="#282153" cx="121.1" cy="53.6" r="3.6"/>
		<circle fill="#282153" cx="114.6" cy="65.8" r="3.6"/>
		<circle fill="#282153" cx="108.1" cy="78" r="3.6"/>
		<circle fill="#282153" cx="101.6" cy="90.2" r="3.6"/>
		<circle fill="#282153" cx="95.1" cy="102.5" r="3.6"/>
		<circle fill="#282153" cx="88.6" cy="114.7" r="3.6"/>
		<circle fill="#282153" cx="82.1" cy="126.9" r="3.6"/>
		<circle fill="#282153" cx="75.6" cy="139.1" r="3.6"/>
		<circle fill="#282153" cx="69.1" cy="151.4" r="3.6"/>
		<circle fill="#282153" cx="158.5" cy="10.7" r="3.6"/>
		<circle fill="#282153" cx="152" cy="22.9" r="3.6"/>
		<circle fill="#282153" cx="145.5" cy="35.1" r="3.6"/>
		<circle fill="#282153" cx="138.9" cy="47.3" r="3.6"/>
		<circle fill="#282153" cx="132.4" cy="59.6" r="3.6"/>
		<circle fill="#282153" cx="125.9" cy="71.8" r="3.6"/>
		<circle fill="#282153" cx="119.4" cy="84" r="3.6"/>
		<circle fill="#282153" cx="112.9" cy="96.2" r="3.6"/>
		<circle fill="#282153" cx="106.4" cy="108.5" r="3.6"/>
		<circle fill="#282153" cx="99.9" cy="120.7" r="3.6"/>
		<circle fill="#282153" cx="93.4" cy="132.9" r="3.6"/>
		<circle fill="#282153" cx="86.9" cy="145.2" r="3.6"/>
		<circle fill="#282153" cx="80.3" cy="157.4" r="3.6"/>
		<circle fill="#282153" cx="169.8" cy="16.7" r="3.6"/>
		<circle fill="#282153" cx="163.3" cy="28.9" r="3.6"/>
		<circle fill="#282153" cx="156.7" cy="41.1" r="3.6"/>
		<circle fill="#282153" cx="150.2" cy="53.4" r="3.6"/>
		<circle fill="#282153" cx="143.7" cy="65.6" r="3.6"/>
		<circle fill="#282153" cx="137.2" cy="77.8" r="3.6"/>
		<circle fill="#282153" cx="130.7" cy="90" r="3.6"/>
		<circle fill="#282153" cx="124.2" cy="102.3" r="3.6"/>
		<circle fill="#282153" cx="117.7" cy="114.5" r="3.6"/>
		<circle fill="#282153" cx="111.2" cy="126.7" r="3.6"/>
		<circle fill="#282153" cx="104.6" cy="138.9" r="3.6"/>
		<circle fill="#282153" cx="98.1" cy="151.2" r="3.6"/>
		<circle fill="#282153" cx="91.6" cy="163.4" r="3.6"/>
		<circle fill="#282153" cx="181.1" cy="22.7" r="3.6"/>
		<circle fill="#282153" cx="174.5" cy="34.9" r="3.6"/>
		<circle fill="#282153" cx="168" cy="47.1" r="3.6"/>
		<circle fill="#282153" cx="161.5" cy="59.4" r="3.6"/>
		<circle fill="#282153" cx="155" cy="71.6" r="3.6"/>
		<circle fill="#282153" cx="148.5" cy="83.8" r="3.6"/>
		<circle fill="#282153" cx="142" cy="96" r="3.6"/>
		<circle fill="#282153" cx="135.5" cy="108.3" r="3.6"/>
		<circle fill="#282153" cx="129" cy="120.5" r="3.6"/>
		<circle fill="#282153" cx="122.4" cy="132.7" r="3.6"/>
		<circle fill="#282153" cx="115.9" cy="144.9" r="3.6"/>
		<circle fill="#282153" cx="109.4" cy="157.2" r="3.6"/>
		<circle fill="#282153" cx="102.9" cy="169.4" r="3.6"/>
		<circle fill="#282153" cx="192.3" cy="28.7" r="3.6"/>
		<circle fill="#282153" cx="185.8" cy="40.9" r="3.6"/>
		<circle fill="#282153" cx="179.3" cy="53.1" r="3.6"/>
		<circle fill="#282153" cx="172.8" cy="65.4" r="3.6"/>
		<circle fill="#282153" cx="166.3" cy="77.6" r="3.6"/>
		<circle fill="#282153" cx="159.8" cy="89.8" r="3.6"/>
		<circle fill="#282153" cx="153.3" cy="102.1" r="3.6"/>
		<circle fill="#282153" cx="146.8" cy="114.3" r="3.6"/>
		<circle fill="#282153" cx="140.2" cy="126.5" r="3.6"/>
		<circle fill="#282153" cx="133.7" cy="138.7" r="3.6"/>
		<circle fill="#282153" cx="127.2" cy="151" r="3.6"/>
		<circle fill="#282153" cx="120.7" cy="163.2" r="3.6"/>
		<circle fill="#282153" cx="114.2" cy="175.4" r="3.6"/>
		<circle fill="#282153" cx="203.6" cy="34.7" r="3.6"/>
		<circle fill="#282153" cx="197.1" cy="46.9" r="3.6"/>
		<circle fill="#282153" cx="190.6" cy="59.2" r="3.6"/>
		<circle fill="#282153" cx="184.1" cy="71.4" r="3.6"/>
		<circle fill="#282153" cx="177.6" cy="83.6" r="3.6"/>
		<circle fill="#282153" cx="171.1" cy="95.8" r="3.6"/>
		<circle fill="#282153" cx="164.6" cy="108.1" r="3.6"/>
		<circle fill="#282153" cx="158" cy="120.3" r="3.6"/>
		<circle fill="#282153" cx="151.5" cy="132.5" r="3.6"/>
		<circle fill="#282153" cx="145" cy="144.7" r="3.6"/>
		<circle fill="#282153" cx="138.5" cy="157" r="3.6"/>
		<circle fill="#282153" cx="132" cy="169.2" r="3.6"/>
		<circle fill="#282153" cx="125.5" cy="181.4" r="3.6"/>
		<circle fill="#282153" cx="214.9" cy="40.7" r="3.6"/>
		<circle fill="#282153" cx="208.4" cy="52.9" r="3.6"/>
		<circle fill="#282153" cx="201.9" cy="65.2" r="3.6"/>
		<circle fill="#282153" cx="195.4" cy="77.4" r="3.6"/>
		<circle fill="#282153" cx="188.9" cy="89.6" r="3.6"/>
		<circle fill="#282153" cx="182.4" cy="101.9" r="3.6"/>
		<circle fill="#282153" cx="175.8" cy="114.1" r="3.6"/>
		<circle fill="#282153" cx="169.3" cy="126.3" r="3.6"/>
		<circle fill="#282153" cx="162.8" cy="138.5" r="3.6"/>
		<circle fill="#282153" cx="156.3" cy="150.8" r="3.6"/>
		<circle fill="#282153" cx="149.8" cy="163" r="3.6"/>
		<circle fill="#282153" cx="143.3" cy="175.2" r="3.6"/>
		<circle fill="#282153" cx="136.8" cy="187.4" r="3.6"/>
	</g>
</g>
<circle fill="#74CEC5" cx="19.8" cy="58.2" r="13"/>
<circle fill="#74CEC5" cx="59.3" cy="66.4" r="13"/>
<circle fill="#74CEC5" cx="98.7" cy="74.6" r="13"/>
</svg>
