<?xml version="1.0" encoding="utf-8"?>
<!-- Generator: Adobe Illustrator 19.0.1, SVG Export Plug-In . SVG Version: 6.00 Build 0)  -->
<svg version="1.1" id="Layer_1" xmlns="http://www.w3.org/2000/svg" xmlns:xlink="http://www.w3.org/1999/xlink" x="0px" y="0px"
	 viewBox="0 0 270 251.1" enable-background="new 0 0 270 251.1" xml:space="preserve">
<g>
	<path fill="#DAA0F1" d="M263.2,120.1C243.7,71,188.1,47.1,139,66.6c-49.1,19.5-73.1,75.1-53.5,124.2s75.1,73.1,124.2,53.5
		C258.7,224.8,282.7,169.2,263.2,120.1z M118,177.9c-12.4-31.1,2.8-66.3,33.9-78.7c31.1-12.4,66.3,2.8,78.7,33.9
		c12.4,31.1-2.8,66.3-33.9,78.7C165.6,224.1,130.4,209,118,177.9z"/>
	<circle fill="#FDC5BA" cx="242.8" cy="10.5" r="10.5"/>
</g>
<g>
	<defs>
		<circle id="SVGID_1_" cx="87.7" cy="143" r="86.6"/>
	</defs>
	<clipPath id="SVGID_2_">
		<use xlink:href="#SVGID_1_"  overflow="visible"/>
	</clipPath>
	<path clip-path="url(#SVGID_2_)" d="M40.1,172.7c0,0-1.1,1.3-2.5,0.3c-1.5-1-0.3-2.8-0.3-2.8s0.6-0.9-0.4-1.4s-2.2,0.1-2.2,0.1
		s-2.4,2.1-2.2,4.2c0.3,2.1-3,3.2-3,3.2s-5.3,0.8-4.9,2.8c0,0,0,4.1,3.6,3.1c3.6-1,8-3.4,8-3.4s4.8,0.4,3.8,3.2
		c-1,2.8-4.6,8.7-0.1,13.1c0,0,1.9,1.8-0.2,3.3c-2.1,1.5-3.2,3.7-2.8,5.3c0,0-1.3,2.3-2.6,1.3c-1.2-1-4.4-2.3-7-0.6l6.6,5.8
		c0,0,1.1-3.2,3.1-2.3c2,0.9,2.6,4.2,1.1,5.2c-1.5,1,6.6,5.1,6.6,5.1s4.2-4.1,3.2-8.2c-1-4.1-2.8-7.4-2.8-7.4s-1.3-2.3,1.9-3.3
		c0,0,1.6-1.6-0.2-4.3c-1.8-2.6,1.3-3.2,1.3-3.2s1-0.7,0-3c-1-2.3-1.7-2.5-1.7-2.5s-0.9-1.2,0.9-2c1.8-0.8-0.7-5.8-0.7-5.8
		s2.1-0.6,1.7-1.5c-0.4-0.8-3-0.4-3-0.4S43,170.2,40.1,172.7z"/>
	<path clip-path="url(#SVGID_2_)" d="M94.5,77.1c0,0,1.7-0.1,1.9,1.7s-1.9,2.2-1.9,2.2s-1.1,0.2-0.8,1.2c0.3,1,1.6,1.5,1.6,1.5
		s3.1,0.4,4.5-1.2c1.4-1.6,4.4,0.1,4.4,0.1s4.1,3.4,5.3,1.7c0,0,3-2.7-0.1-4.8c-3.1-2-7.9-3.7-7.9-3.7s-2.9-3.8-0.1-5
		c2.7-1.1,9.5-2.4,9.8-8.7c0,0,0.1-2.6,2.6-2.1c2.5,0.5,4.9-0.1,5.8-1.4c0,0,2.6-0.6,2.7,1s1.2,4.8,4.2,5.5l-0.1-8.8
		c0,0-3.1,1.3-3.8-0.8c-0.6-2.1,1.4-4.7,3.1-4.3c1.7,0.4-0.6-8.3-0.6-8.3s-5.8-0.4-8.2,3.1s-3.6,7-3.6,7s-0.9,2.5-3.7,0.8
		c0,0-2.3-0.1-3.1,3c-0.8,3.1-3.3,1.2-3.3,1.2s-1.2-0.3-2.2,2c-1.1,2.3-0.7,2.9-0.7,2.9s-0.3,1.5-2.1,0.7c-1.8-0.8-3.9,4.4-3.9,4.4
		s-1.9-1.1-2.2-0.3s1.7,2.5,1.7,2.5S90.7,76.7,94.5,77.1z"/>
	<path clip-path="url(#SVGID_2_)" d="M6.3,172.8c0,0,5.3-3.6,6.6-0.8c1.3,2.8,0,4.1,0,4.1s-0.3,1.7,1.3,1.8c1.6,0.1,2.8-0.5,2.8-0.5
		s3.2-0.4,5.5,3.5c0,0,2.2,7.2,2.8,8c0.6,0.8,2.3,1.2,2.3,1.2s4.9,1.3,6,2.1s3,3.9,1.4,5.7s-6.6,0.6-6.6,0.6s-2.3-0.9-3.2-4.2
		c-0.9-3.2-4.8-3.6-4.8-3.6s-3.6-0.5-4.4-2.4c-0.8-1.8-1.9-0.4-1.9-0.4L6.3,172.8z"/>
	<path clip-path="url(#SVGID_2_)" d="M52.9,196.9c-0.1,1,0.7,1.7,1.6,1.5l1.1-0.3c0,0,1.8-0.7,3,2.1s3.7,7.8,5,7.8
		c1.3-0.1,4.6-1.6,4.6-1.6s2.8-1.1,1.5-3.3s-7.2-15.5-7.2-15.5s-1.8-3.2-4.3-2.4s-7.2,5.2-7,6.6c0.1,1.1,1.1,3,1.5,3.7
		c0.1,0.2,0.2,0.4,0.2,0.7C53,196.3,52.9,196.6,52.9,196.9z"/>
	<path clip-path="url(#SVGID_2_)" d="M1.7,154c0,0,5.7,1.4,5.9-3.6c0,0-0.3-1.3-1.4-2s-4.3-3.3-3.5-6.5c0.9-3.2,4.5-2.8,4.5-6.3
		c0-3.5-5.4-5.1-5.4-5.1S0.7,151.8,1.7,154z"/>
	<path clip-path="url(#SVGID_2_)" d="M92.6,187.3c-5.1,2.5-5.2,3.9-5.9,4.7c-0.7,0.8,0.8,1.2,0.8,1.2s2.8,0.2,3.9-0.1
		c1.1-0.3,1.3,1,1.3,1s2,5.9,2.2,6.1c0.2,0.2,0.3,2.3-1.5,1.7c-1.8-0.5-5.3,1.2-6.1,3.7c-0.8,2.5,3.5,5.5,3.5,5.5s1.3,0.4,2.6,2
		c1.2,1.6,0.7,4.1,0.1,6.1c-0.5,1.9-2,0.8-2,0.8s-2.9-10.6-7.5-8.7c-4.6,1.9,0.5,10.1,1.6,11.8c1.1,1.7-0.5,3.5-1.9,3.5
		s-3,2.4-3,2.4l-6.9-1.1c0,0,0.3-3.2,0.9-5s-0.4-2.2-0.4-2.2s-0.7-0.2-2.3,1.5c-1.6,1.7-4.2,1.7-5.9,1.2c-1.7-0.5-2.5-3.9-2.7-4.6
		c-0.2-0.7-0.8-0.5-0.8-0.5l-1.5,1c-4.7,1-6.1-2.9-7.2-5c-1.1-2.1,1.1-5.2,4.8-5.2c3.7,0,4.5,4.3,4.9,5.2c0.4,0.9,1.1,0.5,1.1,0.5
		s3.1-1.9,5.3-1c2.2,0.9,3.3,3.9,3.3,3.9l1.8,0c0,0-1.1-7.7,1.4-11.8c2.5-4.1,7.7-9.5,7.7-9.5s0.5-1.1-0.2-1.5
		c-0.7-0.4-4.7-0.5-4.7-0.5s-1.5-0.8-0.3-1.7s3-3.8,2.2-5.2s-0.9-1.8-0.2-2.3c0.7-0.5,3-0.1,3-0.1s1.5-1.4-0.1-1.8
		c-1.6-0.5-3.8-0.4-3.7-1.2c0.1-0.8-1.5-2.2-3.1-1.9s-3.1,1.7-1.2,3.6c1.8,1.9,0.4,6.1-1.8,6.9c-2.2,0.9-6.9,1-7.2-2.6
		s-0.5-5.2,1.9-6.7c2.4-1.5,8.8-6.2,7.4-8.5c-1.5-2.3,10.5,1.6,10.5,1.6l1.3,4.1c0,0-0.1,1.1,1.6,0.9s6,1.6,6.6,3.8
		S92.6,187.3,92.6,187.3z"/>
	<path clip-path="url(#SVGID_2_)" d="M67.4,115.8c0,0,2.1,3,1.3,5.3c-0.8,2.2-3.7,3.5-3.7,3.5l0.1,1.8c0,0,7.6-1.6,11.9,0.7
		s9.9,7.1,9.9,7.1s1.2,0.4,1.5-0.3c0.4-0.8,0.2-4.7,0.2-4.7s0.7-1.6,1.6-0.4c1,1.2,3.9,2.8,5.3,1.9c1.4-0.9,1.8-1,2.3-0.3
		c0.5,0.7,0.3,3,0.3,3s1.5,1.4,1.8-0.2c0.4-1.6,0.2-3.9,1-3.8c0.8,0.1,2.1-1.6,1.8-3.2c-0.4-1.6-1.9-3-3.6-1s-6,0.7-7-1.5
		c-1-2.2-1.4-6.8,2.2-7.3s5.2-0.8,6.8,1.5s6.7,8.5,8.8,6.9s-1,10.6-1,10.6l-4.1,1.5c0,0-1.1,0-0.8,1.6c0.3,1.6-1.2,6.1-3.4,6.8
		c-2.2,0.7-4-2.9-4-2.9c-2.8-4.9-4.2-5-5-5.6c-0.9-0.7-1.1,0.8-1.1,0.8s0,2.8,0.3,3.9s-1,1.4-1,1.4s-5.8,2.3-6,2.5s-2.2,0.5-1.8-1.4
		c0.4-1.8-1.5-5.2-4.1-5.9c-2.5-0.7-5.3,3.8-5.3,3.8s-0.3,1.4-1.8,2.7c-1.5,1.3-4.1,0.9-6.1,0.5c-2-0.4-0.9-1.9-0.9-1.9
		s10.4-3.5,8.3-8c-2.1-4.5-10.1,1-11.7,2.3s-3.6-0.3-3.6-1.7s-2.6-2.9-2.6-2.9l0.7-6.9c0,0,3.2,0.1,5,0.6s2.2-0.5,2.2-0.5
		s0.1-0.7-1.6-2.2c-1.8-1.5-1.9-4.1-1.5-5.8s3.8-2.7,4.5-2.9C63.3,114.8,66.5,114,67.4,115.8z"/>
	<path clip-path="url(#SVGID_2_)" d="M149.4,117.8c3.8-4.2,3.4-5.5,3.8-6.5s-1.1-0.8-1.1-0.8s-2.6,0.9-3.6,1.5s-1.6-0.5-1.6-0.5
		s-4-4.8-4.2-4.9c-0.3-0.1-1.1-2,0.7-2.1c1.9-0.2,4.5-3.1,4.3-5.7c-0.2-2.6-5.2-3.8-5.2-3.8s-1.4,0.2-3.1-0.9
		c-1.7-1-2.1-3.6-2.3-5.6s1.5-1.5,1.5-1.5s6.6,8.8,10.2,5.4s-4.1-9.3-5.8-10.4s-0.8-3.5,0.4-4c1.3-0.5,1.9-3.4,1.9-3.4l6.8-1.5
		c0,0,0.9,3,1,4.9c0.1,1.9,1.2,1.9,1.2,1.9s0.7-0.1,1.6-2.2c0.9-2.1,3.3-3.1,5.1-3.3c1.7-0.2,3.8,2.7,4.2,3.3s0.9,0.2,0.9,0.2
		l1.1-1.5c4-2.7,6.7,0.5,8.5,2.1c1.8,1.6,0.9,5.3-2.5,6.6s-5.8-2.4-6.4-3.1s-1.2-0.1-1.2-0.1s-2.2,2.9-4.6,2.9s-4.4-2.4-4.4-2.4
		l-1.7,0.6c0,0,3.9,6.8,3,11.5s-3.7,11.6-3.7,11.6s-0.1,1.2,0.8,1.3c0.8,0.1,4.6-1.3,4.6-1.3s1.7,0.2,0.9,1.4s-1.4,4.6-0.1,5.6
		s1.5,1.4,1,2.1c-0.5,0.7-2.8,1.2-2.8,1.2s-0.9,1.8,0.8,1.7c1.7-0.1,3.7-1,3.9-0.2c0.2,0.8,2.2,1.5,3.6,0.7s2.2-2.7-0.2-3.8
		s-2.6-5.5-0.8-7.1s6.1-3.5,7.6-0.2s2.4,4.7,0.7,6.9c-1.7,2.2-6,9-3.8,10.6c2.2,1.6-10.4,2.3-10.4,2.3l-2.7-3.4c0,0-0.3-1-1.8-0.2
		c-1.5,0.8-6.2,0.7-7.5-1.1C146.5,120.7,149.4,117.8,149.4,117.8z"/>
	<path clip-path="url(#SVGID_2_)" d="M52.3,221.7c0,0,4-1.2,8.2-0.5c4.1,0.7,5.2,5.7,5.2,5.7L52.3,221.7z"/>
	<path clip-path="url(#SVGID_2_)" d="M89.2,229.6c0,0,0.4-6.8,5.3-7.3c4.9-0.5,3.7,6.1,2.4,6.8S89.2,229.6,89.2,229.6z"/>
	<path clip-path="url(#SVGID_2_)" d="M111.1,226.4c0,0,0.4-2.8,3-3.5c2.6-0.7,3.9,1.2,3.9,1.2L111.1,226.4z"/>
	<path clip-path="url(#SVGID_2_)" d="M128.4,218.7l-5,1.3c-3.3,1-6.6-2.4-6.8-3.2c-0.3-0.8,4.2-2.5,5.4-2.8s1.2-1.5,1.2-1.5
		s-1.3-6.7-3-5.5c-1.6,1.2-3.5,0.7-4.1-0.1s-1.4,0.3-1.4,0.3s-2.6,1.1-4.4-0.6c-1.8-1.7-0.8-5.6-0.5-6.2s-0.7-1.2-1.8-2.1
		s-1-3.4-1-3.4s0.8-4-1.7-3.7c-2.4,0.2-3,4.1-3,4.1s0.5,6.2-2.1,8.2c-2.6,2,1,5.5,1,5.5s9.2,6.6,9.7,7.2s0.7,1.8-1,3.7
		c-1.8,1.9-3.6,0.9-3.9,0.7s-2.3,0.1-3,0.1c-0.8-0.1-1.8-4.2-2.4-4c-0.5,0.2-1.2-0.4-1.2-0.4l-1.2-4.2c0,0-0.7-1.6-1.9-1.3
		c-1.3,0.3-1.2-0.1-2-1c-0.8-0.9,1.2-6.3,1.2-6.3s1.1-1.1,0.7-1.7c-0.4-0.6-2.1-6-0.8-7.5c1.4-1.6,2.5-7.7,2.5-7.7s2-5.6-0.7-6.5
		s-2.7-3.5-2.7-3.5s-0.5-3.2,1.4-3.6c2-0.4,6.4,1.8,6.4,1.8s3,1.3,4,0.5c1-0.8,1.8,0.8,0.6,1.9c-1.2,1.1,0.8,2.7,0.8,2.7
		s2.6,0.1,2.5-2.5c-0.1-2.6,3.4-1,3.4-1s1.9,0.7,2.9,0.3s5.5-0.4,6,0.5s1.9,3-1,4.4c-2.9,1.4-3.3,0.1-3.3,0.1s-2,0.2-1.5,0.8
		c0.5,0.7,1.9,0.3,1.4,1.5c-0.6,1.2-4.6,0.1-4.6,0.1s-2.4-0.3-2.6,0.8c-0.2,1.1,2,2.8,2,2.8s2,1,2.4,3.6c0.4,2.7,0.1,4.3,0.1,4.3
		s0.7,1.9,2,0.9c1.3-1,4.8-2.8,4.8-2.8s1.5-2.7,2.4-2.1c1,0.5,1.5,2.3,0.3,3.9c-1.2,1.6-2.8,3.5-2.1,5.5c0.8,2.1,2.7,2.8,2.7,2.8
		s1.8,4.7,3.7,4.7c1.9,0,5.6,0.5,5.8-2.5c0.2-3,3.9-6.2,3.9-6.2s2.3-1.2,0.8-3.3c-1.4-2.1-4.4-2-4.4-2s-4.3,1.7-5.5-1
		c-1.1-2.8-0.2-3.8-0.2-3.8s0.6-0.7,0.2-1.5s-1.7-0.5-1.7-0.5S126,188,126,186c0-2-2.6-0.9-2.6-0.9s-2.5-0.9,0.3-3.3
		c2.8-2.4,5.5-2.3,5.5-2.3s3,0.1,3.4,3.4c0,0-0.9,2.4,0.4,3.1c1.3,0.7,2.8-0.2,2.8-0.2s2.9-2.3,1.8-6.4c-1-4.2,2.4-3.5,2.4-3.5
		s5.2,1.4,7.4-1.6s2.4,1.1,2.4,1.1s-2.5,6.5-4.2,7.6c-1.7,1-1.7,3.1-1.7,3.1s0.2,1.6,1.8,2.5s3,6,3,6s1.2,3.1,3.9,1.3
		c2.7-1.8,3.3-5.1,3.3-5.1s-0.1-3.4-2.1-4.5s-0.5-3-0.5-3s1.6-0.9,0.8-2.4c-0.8-1.4-0.6-2.5,0.5-3s1-1.8,1-1.8s1.1-3.3,4.6-2.5
		c3.5,0.8,1-2.4,1-2.4l-1-2.1c0,0-0.4-2.6,2.7-3.2c3.1-0.6,9.1-3.3,9.1-3.3l-3.9,12.5l-4.7,9.9l-5.1,8.2l-7.1,8.7l-7.8,7.4l-7.9,5.9
		L128.4,218.7z"/>
	<path clip-path="url(#SVGID_2_)" d="M58.8,155.1c-1,0.6-1.7,1.6-1.7,2.7c-0.1,1.9,0.1,4.5,1.9,6c3.1,2.5,6-0.4,7.4,1.3
		c1.4,1.6,4-0.1,3.6-1.6c-0.4-1.3-2.8-8.2-3.5-10.4c-0.2-0.5-0.4-0.9-0.8-1.2c-1.2-1.2-3.9-3.6-6.2-2.9c-3,0.9-0.6,2.4-0.6,2.4
		S60.4,154.1,58.8,155.1z"/>
	<path clip-path="url(#SVGID_2_)" d="M2.1,129.4c0,0,2.8,0.7,3.1-1.8c0.3-2.5-1.9-4.1-1.9-4.1L2,129.2"/>
	<path clip-path="url(#SVGID_2_)" d="M5.7,114.9c0,0,4.9,2.6,7.1-0.8c2.1-3.4,2.5-2.6,2.5-2.6s0.8-0.4,1.2,1
		c0.4,1.4,1.4,6.2,3.6,8.1c2.3,1.9-0.6,3.7-0.6,3.7s-2,0.1-2.5-0.5c-0.6-0.6-5.5-0.4-6.2,1.3s0,7.1,2.7,9.2c2.8,2,2.5,3.4,2.5,3.4
		s0,1.8-2.5,2.2c-2.5,0.5-2.9,7.2-2.9,7.2s0.4,4.9,2.6,7.4c0,0,0.5,1.9-1.9,2.5s-3.1-1.9-6.1,1.9s1.1,8,1.1,8s2.5,2.2,6.1-1.2
		s1.2-6.9,1.2-6.9s-0.1-1.5,1.5-1.6c1.7-0.1,5.3,0,6.1,1.4s-1.1,2.4-1.1,2.4s-2.1,0.1-1.6,1.2c0.5,1.1,0.4,2.6-0.1,2.8
		c-0.5,0.2-3.8,2.9-3.2,4.2c0.6,1.3,2.1,1.6,2.1,1.6s-0.2,0.6,0.6,1.1c0.8,0.6,1.7-0.8,1.7-0.8s0.9-1.8,2.6-1.9
		c1.7-0.1,3.8,1,4.9-0.4c1.1-1.5,1.8-3.6,0.9-5.2c-0.9-1.5,0.3-3.4,0.3-3.4s1.9-2.1,3.5-1.3c1.6,0.7,4.7,4,4.7,4s4.5,4.1,6.2,3.8
		c1.7-0.4,3.1-0.6,3-1.9c-0.1-1.3,1.7-1.4,1.7-1.4s1,0,1.5,1.5c0.5,1.6,1.8,5.6,3.2,7.1c1.4,1.4,3.2,3.5,3.4,4.5
		c0.2,1,1.3,3.8,5.1,3.4c3.8-0.4,3.2-2.3,3.2-2.3s1.1-1.3,2.1-0.1s3.1,1.7,3.1,1.7s1.2,0.3,1.9-0.8c0.7-1.2,0.7-2.6,1.9-3
		c1.2-0.4,1.7-1.2,1.4-1.6s-2-0.4-2-0.4s-10.4-0.4-11.9-1.6c-1.6-1.2-4.4-0.2-5.5-3.2c0,0-2-3.8-1.1-5.2c1-1.4-0.2-3.5-0.2-3.5
		s-1.3-1.8-2.3-1.8c-1,0-1-1.9-1-1.9s-1.4-1.9-2.5-1.7c-1.1,0.2-2.8,1-2.8,1s-1.1-0.3-1.1-1.4c0-1.1-2.9-2.2-2.9-2.2s-3.1-1.7-5-0.4
		s-2.4-0.6-2.4-0.6l-1.2-2.4c0,0-0.9-4.5,0.7-5.5c1.6-1,0.1-2.9-1.3-2.5c-1.4,0.4-5,2.8-4.8,4.8c0.2,1.9,1.3,4.6,1.3,4.6
		s0.8,2.1,0,2.5c-0.8,0.4-2.9,0.4-2.9,0.4l-6.6-0.7c0,0-2.5-0.5-2.6-2.9c-0.1-2.4,1.3-4.8,1.3-4.8s3.8-2,3.6-3.4
		c0,0,1.7-2.9-0.3-7.4c0,0-1-0.7-0.3-1.2c0.7-0.5,5.7-1,6.3-3.1c0.5-2.1,1.2-6.2,1.2-6.2s0.8-1.9,2.1-1.1c1.3,0.8,3.5,4.7,3.5,4.7
		s2.8,2.9,5.9-0.6c3.1-3.5-0.8-7.8-0.8-7.8s-2.5-2.6-5.7,0.1c0,0-1.7,0.4-1.7-1c0-1.4,1.9-3,1-5.4c-0.9-2.4-3-5.4-5.5-5.6
		c0,0-3.7-1.4-6.8,1c0,0-1,0.6-1.1-0.5s-0.1-5.6-2.7-6.3s-4.3,0.5-4.3,0.5L5.7,114.9z"/>
	<path clip-path="url(#SVGID_2_)" d="M154,128.3c0,0-5.6,0-5.9,4s-1,3.5-1,3.5s-0.6,0.7-1.6-0.3c-1-1.1-4.1-4.9-7-5.5
		s-1.2-3.5-1.2-3.5s1.7-1,2.5-0.7c0.8,0.3,5.1-2.2,4.9-4c-0.1-1.8-3.3-6.3-6.7-6.9c-3.4-0.5-3.8-1.8-3.8-1.8s-0.8-1.6,1.2-3.2
		c2-1.6-0.8-7.7-0.8-7.7s-2.6-4.2-5.7-5.4c0,0-1.3-1.4,0.6-3.1c1.9-1.7,3.6,0.2,4.6-4.5s-4.7-6.6-4.7-6.6s-3.2-0.8-4.9,3.9
		c-1.7,4.7,2.1,6.6,2.1,6.6s0.8,1.3-0.6,2.1c-1.4,0.8-4.7,2.5-6.1,1.6c-1.3-0.9-0.2-2.6-0.2-2.6s1.8-1.1,0.9-1.8s-1.5-2.1-1.2-2.5
		c0.3-0.4,2-4.3,0.9-5.2s-2.6-0.4-2.6-0.4s-0.1-0.6-1.1-0.7c-1-0.1-1.1,1.4-1.1,1.4s0.1,2-1.4,2.9c-1.5,0.9-3.8,0.8-4.1,2.6
		c-0.3,1.8,0.1,4.1,1.6,5c1.5,0.9,1.3,3.1,1.3,3.1s-0.7,2.7-2.5,2.8c-1.8,0.1-6-1.4-6-1.4s-5.9-1.6-7.2-0.5c-1.3,1.1-2.5,1.9-1.8,3
		s-0.8,2-0.8,2s-0.9,0.5-2.1-0.7c-1.2-1.1-4.2-4.2-6.1-4.8c-1.9-0.6-4.5-1.6-5.1-2.4c-0.6-0.8-2.9-2.7-6.1-0.6
		c-3.2,2.1-1.8,3.5-1.8,3.5s-0.4,1.6-1.8,1.1s-3.5,0-3.5,0s-1.2,0.3-1.3,1.6c-0.1,1.4,0.6,2.7-0.3,3.6c-0.9,0.9-1,1.9-0.5,2.1
		c0.5,0.2,2-0.6,2-0.6s9.3-4.5,11.3-4.1s4-1.9,6.4,0.3c0,0,3.6,2.4,3.3,4.1c-0.2,1.6,1.8,3,1.8,3s2,1,2.9,0.5
		c0.9-0.5,1.8,1.2,1.8,1.2s2.1,1.1,3,0.4c0.9-0.7,2.1-2.2,2.1-2.2s1.1-0.2,1.6,0.7s3.5,0.6,3.5,0.6s3.5,0.1,4.6-1.9
		c1.1-2,2.5-0.6,2.5-0.6l2.2,1.6c0,0,2.8,3.6,1.9,5.2c-0.9,1.7,1.3,2.6,2.3,1.6c1.1-1,3.1-4.8,2.1-6.5s-3.3-3.5-3.3-3.5
		s-1.7-1.5-1.1-2.2s2.4-1.7,2.4-1.7l6.2-2.4c0,0,2.4-0.7,3.6,1.4c1.2,2,1.1,4.9,1.1,4.9s-2.5,3.5-1.6,4.6c0,0-0.2,3.3,3.7,6.4
		c0,0,1.2,0.1,0.8,0.9c-0.4,0.8-4.6,3.6-4.1,5.7c0.5,2.1,1.8,6.1,1.8,6.1s0.1,2.1-1.4,1.9c-1.5-0.2-5.3-2.5-5.3-2.5s-3.8-1.3-5,3.2
		s4.3,6.5,4.3,6.5s3.4,1.2,5-2.7c0,0,1.3-1.1,2,0.1c0.6,1.2-0.3,3.5,1.6,5.2c1.9,1.7,5.2,3.4,7.5,2.4c0,0,3.9-0.5,5.6-4.1
		c0,0,0.6-1,1.2-0.1c0.5,0.9,2.7,4.9,5.3,4.4c2.6-0.6,3.6-2.5,3.6-2.5L154,128.3z"/>
	<path clip-path="url(#SVGID_2_)" d="M110.6,129.5c0,0-6.5,2.6-5.3,5.6c1.3,3,4.9,3.9,6.8,3.3s5-1.7,5-1.7s2.8-1.7,1.1-5.1
		C116.6,128.3,110.6,129.5,110.6,129.5z"/>
	<path clip-path="url(#SVGID_2_)" d="M53.1,142.7c0,0-5.8-5.5-6.2-9.1c-0.4-3.6-4.6-0.1-3.8,1.7c0.8,1.8-3.4,1.1-3.4,1.1
		s-4.5,0.8-2.9,4.2c1.6,3.4,1.6,7.7,3.7,8.2s5.6,2.8,8.3,0.9c2.8-1.9,1.5-5.5,1.5-5.5s-0.5-2.4,0.7-1.6c1.2,0.8,2.8,1.5,2.8,1.5
		L53.1,142.7z"/>
	<path clip-path="url(#SVGID_2_)" d="M16.7,93.9c0,0,2.5,1.9,4,1.2s2.1,0,2.1,0s0.9,1,1,1.6c0.2,0.6,1.8,1.4,2.7,0.1
		c0.9-1.4,1.8-2.8,1.1-4.3c-0.7-1.6-3.5-6.4-5.6-5.9c-1.7,1.3-5.5,7.1-5.5,7.1"/>
	<path clip-path="url(#SVGID_2_)" d="M30.2,78.1c0,0,1.8,5.3-0.9,9.1s3.9,4.4,3.9,4.4s3.4-1.8,3-5.9c-0.2-2.3,1-2.2,1.4-2.4
		c1.7-0.5,2.5,1.1,2.5,1.1s2.1,1.8,4.3-1.5c2-3.2,6.5-5.7,4.7-8.4c-1.8-2.7-1-8.5-1-8.5S31.6,74.9,30.2,78.1z"/>
	<path clip-path="url(#SVGID_2_)" d="M174,137c0,0-5.3-1.8-6.7-6.1c-1.4-4.4-5.8,0.5-5.8,0.5s-0.5,3.8,3,5.9c2,1.2,1.2,2.1,1,2.6
		c-0.6,1.7-2.4,1.3-2.4,1.3s-2.7,0.6-1.4,4.3c1.3,3.5,0.7,8.6,3.9,8.8s7.4,4.3,7.4,4.3S175.8,140,174,137z"/>
	<path clip-path="url(#SVGID_2_)" d="M159.9,157.9c0,0,4.8-1.9,1.2-6.7s-6.7-2.1-6.7-2.1l-4,4c0,0-0.8,4.5-3.3,4.1s-2-2.3-2-2.3
		s0.3-3.5-1.4-3.6c-1.7-0.1-1.5,1-1.5,1l-3.5-5.6c0,0-7.5-3.6-11.6-1c-4.1,2.6-8.9,2.9-9.4,5.8c-0.5,2.9-6.1-1.9-6.1-1.9
		s-1.7,0.3-2.3-2s-1.4-3.1-2.4-2.4s-0.5,1.9-0.5,1.9s0,3.7-1.3,2.4c-1.3-1.3-3.2-4.1-4.6-2c-1.4,2,1,4.8,1,4.8s-1.1,5.9-6.5,4.2
		c-5.4-1.7-7,1.5-7,1.5s-0.4,2,0.8,2.2c1.2,0.2,12.2,2.9,12.2,2.9s5.6-1.5,3.7-6c-1.9-4.5,10.5-0.4,10.5-0.4s5.6,4.5,8.1,2.7
		s4.1-5,4.1-5s5.3-3.5,6.6-1.1c1.2,2.3,8.8,5.5,8.8,5.5s3.8,9.3,7.2,6.7c3.4-2.6,1.6-5,1.6-5s3.9-2,5.2,1.5s3.9,0.3,3.9,0.3
		s0.6-1.1-0.6-1.8s-2.1-0.9-1.7-1.4C158.9,158.5,159.9,157.9,159.9,157.9z"/>
	<path clip-path="url(#SVGID_2_)" d="M114.3,166c0,0-8.3-4.1-9.9,1.2c-1.7,5.3,2.2,4.9,5,5.2c2.8,0.3,10.4-4,11.4-2.1
		c1.1,1.9,8.1,7.5,11.4,5.2s3.2-9.4-1.5-10.4c-4.7-1.1-3.1,3.2-3.1,3.2l-3.5-1.1c0,0-1.2-4.1-4.8-2.6
		C115.7,166.2,114.3,166,114.3,166z"/>
	<path clip-path="url(#SVGID_2_)" d="M72.5,55.3c0,0-4.5,8.3,0.7,13s4.6,14.4,0.6,16.1c-3.9,1.8-0.2,9.1,2.4,7.9
		c2.6-1.3,7.1-2.9,5.2-6.6c-2-3.6,1-5.4,2.4-5.1c1.4,0.3,5.8-3.4,2.5-4.9c-3.3-1.6-3.7-0.7-3.7-0.7S81,73,82.4,72.4
		c1.4-0.6,6.4-4.1,3.3-8.8s2.3-6.3,4.3-5.2c2,1.1,5.2-2.5,2.5-3.4C89.8,54.1,72.5,55.3,72.5,55.3z"/>
	<path clip-path="url(#SVGID_2_)" d="M63.9,87.7c0,0,1.7-5.1,5-5.9s-0.1-10.5-3.7-8.5c-3.6,2-4.8,5.5-4.8,5.5l1.7,3
		c0,0-1.5,2.1-2.7,0.3s-2.1-3.4-3.7-2.1c-1.6,1.3-3.2,5.1,0,7.4c3.1,2.3-12.2,4.2-12.2,4.2s-14.2,6.2-10.2,13.7
		c3.9,7.5,8.9,2.4,8.9,2.4s2.6-3.4,1.5-5.3c-1.1-1.8-1.7-3.3,1.2-4.2s6.5,8.3,3.4,11.4s-2.2,10.2,1.5,9.4c3.6-0.8,9-5.7,6-9.4
		s-3.7-4.8-2.8-5.3c0.9-0.5,1.2-4.4-0.4-5.4c-1.6-1,0.8-5.6,1.9-4.2c0,0,3.9,2.7,7.2-0.5S63.9,87.7,63.9,87.7z"/>
	<path clip-path="url(#SVGID_2_)" d="M50.9,64.7c0,0,0.5,8,5.9,9.6s3.9-2.2,3.9-2.2s-1.2-1.9-2.2-1.8c-1,0.1-0.3-1,0.6-1.2
		s3.9,3.8,6.2,0.1c2.3-3.7-2.6-5.9-2.6-5.9s0.8-1.3,1.6-1.5c0.8-0.1,3.2-2.4,2.8-3"/>
	<path clip-path="url(#SVGID_2_)" d="M127,81.1c0,0,11.2,3,11.6-4.1c0,0,0.7-6.3-7.8-4.8c0,0-3.3-0.2-4.7,2.2c-1.3,2.3-2.8,0-2.8,0
		s1.1-4.9,4.1-5.1c3.1-0.2,6.9-2.7,6.9-2.7s9.6,1.2,10,4.2c0.4,3,4.3,1.5,3.3-0.8s-2.9-5.2-6.3-4.7c-3.4,0.5-2.8-2.4-2.8-2.4
		s-0.5-2.7-2.9-1.2s-1.6,2.6-1.6,2.6s-3.3,3-4.4-0.2c-1.1-3.2-7.6,2-7.6,2s-2.9,3.8-4.1,2.9s-4.7-3.8-6.9,0.3
		c-2.1,4.1,0.4,8.1,0.4,8.1L127,81.1z"/>
	<path clip-path="url(#SVGID_2_)" d="M80.9,102.4l-0.8,6.1c0,0-2.1-1.5-5.3,0.4s-5.9,4.5-3.3,6.8c2.6,2.3,7.9,5.8,10.4,3.1
		c2.5-2.7,3-7.6,1.7-8.5c-1.3-1,4.1-9.1,4.1-9.1"/>
	<path clip-path="url(#SVGID_2_)" d="M87.1,83.7c0,0-5.9,5.3-2,9.5s8.1,4.6,10.2,3.7c2.1-0.9,3.1-4,4.9-3.1c1.8,1,6.4-1.6,3.8-4.3
		s-10.4-0.2-10.4-0.2S91.8,81.9,87.1,83.7z"/>
	<path clip-path="url(#SVGID_2_)" d="M76.4,147.5c0,0-6.7-4.2-7.5,0.7c-0.8,4.9,5.3,4,4.5,5.9c-0.8,2,1.3,12.4,6.5,13.7
		c5.2,1.4,13.8,6.4,15.3,1.8c1.5-4.5-10.8-6-10.8-6s-8.2-10.1-1.3-12.1c6.9-2,9.6-5.4,7.6-6.5C88.7,144,77,151.9,76.4,147.5z"/>
</g>
</svg>
