<?xml version="1.0" encoding="utf-8"?>
<!-- Generator: Adobe Illustrator 19.0.1, SVG Export Plug-In . SVG Version: 6.00 Build 0)  -->
<svg version="1.1" id="Layer_1" xmlns="http://www.w3.org/2000/svg" xmlns:xlink="http://www.w3.org/1999/xlink" x="0px" y="0px"
	 viewBox="0 0 254.2 253.4" style="enable-background:new 0 0 254.2 253.4;" xml:space="preserve">
<style type="text/css">
	.st0{clip-path:url(#SVGID_2_);}
</style>
<g>
	<defs>
		<circle id="SVGID_1_" cx="126.5" cy="127.9" r="125.5"/>
	</defs>
	<clipPath id="SVGID_2_">
		<use xlink:href="#SVGID_1_"  style="overflow:visible;"/>
	</clipPath>
	<path class="st0" d="M57.7,171c0,0-1.6,1.9-3.7,0.4c-2.1-1.4-0.5-4.1-0.5-4.1s0.9-1.4-0.5-2c-1.4-0.6-3.2,0.2-3.2,0.2s-3.5,3-3.1,6
		c0.4,3-4.3,4.6-4.3,4.6s-7.7,1.2-7,4.1c0,0,0,5.9,5.2,4.5c5.2-1.4,11.6-4.9,11.6-4.9s6.9,0.6,5.5,4.7c-1.4,4-6.6,12.6-0.1,18.9
		c0,0,2.7,2.6-0.3,4.8c-3,2.2-4.7,5.4-4.1,7.6c0,0-1.9,3.4-3.7,1.9c-1.8-1.5-6.3-3.3-10.1-0.8l9.6,8.4c0,0,1.7-4.6,4.5-3.3
		s3.8,6.1,1.6,7.5s9.6,7.4,9.6,7.4s6-5.9,4.6-11.9s-4-10.7-4-10.7s-1.9-3.4,2.7-4.8c0,0,2.4-2.3-0.3-6.2c-2.6-3.8,1.9-4.6,1.9-4.6
		s1.5-1,0-4.3c-1.4-3.3-2.4-3.6-2.4-3.6s-1.3-1.8,1.3-2.9c2.6-1.1-1-8.4-1-8.4s3-0.9,2.5-2.1s-4.3-0.6-4.3-0.6S61.8,167.3,57.7,171z
		"/>
	<path class="st0" d="M136.5,32.5c0,0,2.4-0.1,2.8,2.4c0.3,2.5-2.7,3.1-2.7,3.1s-1.6,0.3-1.1,1.7c0.5,1.4,2.3,2.2,2.3,2.2
		s4.6,0.6,6.6-1.7c2-2.3,6.4,0.1,6.4,0.1s6,4.9,7.7,2.5c0,0,4.4-3.9-0.1-6.9c-4.5-3-11.4-5.4-11.4-5.4s-4.2-5.6-0.2-7.2
		c4-1.7,13.8-3.5,14.2-12.6c0,0,0.1-3.8,3.8-3s7.1-0.1,8.4-2c0,0,3.8-0.8,3.9,1.5s1.7,6.9,6.1,8l-0.2-12.7c0,0-4.6,1.9-5.5-1.2
		c-0.9-3,2-6.9,4.5-6.2S181-16.8,181-16.8s-8.4-0.6-11.9,4.5s-5.2,10.1-5.2,10.1s-1.3,3.7-5.4,1.2c0,0-3.3-0.2-4.4,4.3
		c-1.1,4.5-4.7,1.7-4.7,1.7s-1.7-0.4-3.2,2.8S145,12,145,12s-0.5,2.2-3.1,1c-2.6-1.2-5.6,6.3-5.6,6.3s-2.7-1.6-3.2-0.4
		c-0.5,1.2,2.4,3.6,2.4,3.6S131,31.9,136.5,32.5z"/>
	<path class="st0" d="M8.7,171.1c0,0,7.7-5.2,9.6-1.2c1.9,4.1-0.1,5.9-0.1,5.9s-0.4,2.5,1.9,2.6s4.1-0.7,4.1-0.7s4.6-0.6,7.9,5.1
		c0,0,3.1,10.4,4.1,11.6c0.9,1.1,3.3,1.8,3.3,1.8s7.2,1.8,8.6,3.1c1.5,1.2,4.4,5.6,2,8.3c-2.4,2.7-9.6,0.9-9.6,0.9s-3.3-1.3-4.6-6
		c-1.3-4.7-7-5.3-7-5.3s-5.2-0.8-6.4-3.5s-2.7-0.6-2.7-0.6L8.7,171.1z"/>
	<path class="st0" d="M76.2,206c-0.2,1.4,1,2.5,2.4,2.2l1.6-0.4c0,0,2.6-1.1,4.4,3c1.7,4.1,5.4,11.4,7.3,11.2s6.7-2.3,6.7-2.3
		s4-1.5,2.2-4.8c-1.8-3.3-10.4-22.4-10.4-22.4s-2.6-4.7-6.3-3.5c-3.7,1.2-10.5,7.6-10.2,9.6c0.2,1.6,1.6,4.3,2.2,5.4
		c0.2,0.3,0.2,0.6,0.2,1C76.3,205.2,76.2,205.6,76.2,206z"/>
	<path class="st0" d="M2,143.8c0,0,8.3,2,8.6-5.2c0,0-0.4-1.9-2-2.9c-1.7-1-6.3-4.8-5-9.4c1.3-4.6,6.5-4,6.5-9.1s-7.8-7.4-7.8-7.4
		S0.5,140.6,2,143.8z"/>
	<path class="st0" d="M133.8,192.1c-7.3,3.7-7.5,5.6-8.5,6.8s1.1,1.7,1.1,1.7s4,0.2,5.6-0.2c1.6-0.4,1.9,1.5,1.9,1.5
		s2.8,8.6,3.1,8.9s0.5,3.3-2.1,2.5c-2.6-0.8-7.7,1.8-8.8,5.4c-1.2,3.6,5,7.9,5,7.9s1.9,0.5,3.7,2.8c1.8,2.3,1,6,0.2,8.8
		c-0.8,2.8-2.9,1.2-2.9,1.2s-4.2-15.4-10.9-12.6c-6.7,2.7,0.7,14.7,2.3,17.1c1.7,2.4-0.7,5.1-2.7,5.1c-2,0-4.4,3.5-4.4,3.5l-10-1.6
		c0,0,0.4-4.6,1.2-7.2c0.8-2.6-0.6-3.2-0.6-3.2s-1-0.2-3.3,2.2s-6.1,2.4-8.6,1.7c-2.4-0.7-3.6-5.7-3.9-6.7c-0.3-1-1.1-0.7-1.1-0.7
		l-2.2,1.4c-6.8,1.5-8.8-4.2-10.4-7.3c-1.6-3.1,1.6-7.6,6.9-7.6c5.3,0,6.5,6.3,7.1,7.6c0.5,1.3,1.5,0.7,1.5,0.7s4.5-2.8,7.7-1.5
		c3.2,1.3,4.7,5.6,4.7,5.6l2.6,0c0,0-1.6-11.2,2-17.1s11.1-13.8,11.1-13.8s0.7-1.6-0.3-2.2c-1.1-0.6-6.8-0.7-6.8-0.7
		s-2.2-1.1-0.4-2.4c1.8-1.3,4.3-5.4,3.2-7.5s-1.3-2.7-0.3-3.4c1.1-0.7,4.4-0.1,4.4-0.1s2.2-2-0.1-2.7c-2.3-0.7-5.6-0.6-5.4-1.7
		c0.2-1.1-2.2-3.2-4.6-2.8c-2.3,0.4-4.4,2.5-1.8,5.2c2.7,2.7,0.6,8.8-2.7,10.1c-3.3,1.3-10,1.5-10.4-3.8c-0.4-5.2-0.8-7.6,2.7-9.7
		c3.5-2.1,12.8-9,10.7-12.2c-2.1-3.3,15.2,2.3,15.2,2.3l1.9,6c0,0-0.1,1.5,2.3,1.3s8.8,2.3,9.5,5.5S133.8,192.1,133.8,192.1z"/>
	<path class="st0" d="M97.2,88.5c0,0,3,4.4,1.9,7.6c-1.1,3.2-5.4,5-5.4,5l0.1,2.6c0,0,11-2.3,17.2,1c6.1,3.3,14.3,10.3,14.3,10.3
		s1.7,0.6,2.2-0.5c0.5-1.1,0.3-6.9,0.3-6.9s1-2.3,2.4-0.6c1.4,1.7,5.7,4,7.7,2.7c2-1.3,2.6-1.5,3.4-0.5s0.4,4.4,0.4,4.4
		s2.1,2.1,2.7-0.3s0.3-5.6,1.4-5.5c1.1,0.1,3.1-2.4,2.6-4.7c-0.5-2.3-2.7-4.3-5.3-1.5c-2.6,2.8-8.7,1.1-10.2-2.1s-2-9.9,3.2-10.6
		c5.2-0.7,7.5-1.2,9.8,2.2s9.6,12.3,12.8,10s-1.5,15.3-1.5,15.3l-5.9,2.2c0,0-1.5,0-1.1,2.3s-1.8,8.9-5,9.8c-3.2,1-5.9-4.3-5.9-4.3
		c-4.1-7.1-6-7.2-7.3-8.1c-1.2-1-1.6,1.2-1.6,1.2s0,4,0.5,5.6c0.5,1.6-1.4,2-1.4,2s-8.4,3.3-8.7,3.6c-0.3,0.3-3.3,0.7-2.6-2
		c0.6-2.7-2.2-7.6-5.9-8.5c-3.7-1-7.7,5.4-7.7,5.4s-0.4,2-2.6,3.9c-2.2,1.9-5.9,1.3-8.8,0.7c-2.8-0.6-1.4-2.8-1.4-2.8
		s15.1-5.1,12-11.6c-3.1-6.5-14.6,1.5-17,3.3c-2.3,1.8-5.2-0.4-5.2-2.4c-0.1-2-3.7-4.2-3.7-4.2l1.1-10c0,0,4.6,0.1,7.3,0.8
		c2.7,0.7,3.1-0.7,3.1-0.7s0.2-1-2.4-3.2c-2.5-2.1-2.8-6-2.2-8.5c0.5-2.5,5.5-4,6.5-4.3C91.3,87.1,95.9,85.9,97.2,88.5z"/>
	<path class="st0" d="M216,91.5c5.5-6.1,4.9-8,5.4-9.5c0.5-1.5-1.6-1.2-1.6-1.2s-3.8,1.2-5.2,2.2c-1.4,1-2.3-0.7-2.3-0.7
		s-5.8-6.9-6.2-7.1c-0.4-0.2-1.7-2.9,1.1-3.1c2.7-0.2,6.5-4.5,6.2-8.2c-0.2-3.8-7.6-5.6-7.6-5.6s-2,0.2-4.5-1.3
		c-2.5-1.5-3.1-5.2-3.4-8.1c-0.3-2.9,2.2-2.2,2.2-2.2s9.6,12.8,14.8,7.8c5.2-5-6-13.4-8.4-15.1s-1.2-5,0.6-5.7
		c1.8-0.7,2.8-4.9,2.8-4.9l9.9-2.1c0,0,1.3,4.4,1.5,7.2c0.2,2.8,1.7,2.7,1.7,2.7s1-0.2,2.3-3.3c1.2-3.1,4.8-4.5,7.3-4.7
		c2.5-0.3,5.5,4,6.1,4.8c0.6,0.8,1.3,0.3,1.3,0.3l1.5-2.1c5.8-3.9,9.7,0.7,12.4,3c2.6,2.3,1.3,7.6-3.7,9.6s-8.4-3.5-9.3-4.5
		s-1.7-0.1-1.7-0.1s-3.2,4.2-6.6,4.2c-3.4,0-6.4-3.5-6.4-3.5l-2.5,0.9c0,0,5.6,9.8,4.4,16.6c-1.2,6.8-5.3,16.9-5.3,16.9
		s-0.1,1.8,1.1,1.9c1.2,0.1,6.6-1.8,6.6-1.8s2.5,0.2,1.3,2.1c-1.2,1.8-2.1,6.6-0.2,8.2c1.9,1.5,2.2,2,1.5,3
		c-0.7,1.1-4.1,1.7-4.1,1.7s-1.3,2.6,1.1,2.4c2.4-0.2,5.4-1.5,5.6-0.4c0.2,1.1,3.2,2.2,5.3,1c2-1.2,3.2-3.9-0.3-5.5s-3.7-8-1.2-10.3
		c2.6-2.4,8.8-5,11-0.3c2.2,4.7,3.5,6.8,1,10c-2.4,3.2-8.6,13-5.5,15.3c3.2,2.3-15,3.4-15,3.4l-3.9-4.9c0,0-0.4-1.5-2.6-0.3
		s-9,1.1-10.9-1.7C211.8,95.6,216,91.5,216,91.5z"/>
	<path class="st0" d="M75.4,241.9c0,0,5.9-1.8,11.9-0.8c6,1,7.5,8.2,7.5,8.2L75.4,241.9z"/>
	<path class="st0" d="M128.7,253.4c0,0,0.6-9.8,7.7-10.6c7.2-0.7,5.3,8.8,3.5,9.9C138.1,253.8,128.7,253.4,128.7,253.4z"/>
	<path class="st0" d="M160.5,248.7c0,0,0.5-4,4.3-5c3.8-1,5.7,1.8,5.7,1.8L160.5,248.7z"/>
	<path class="st0" d="M185.6,237.5l-7.2,1.8c-4.8,1.4-9.5-3.4-9.9-4.6c-0.4-1.2,6.1-3.6,7.8-4.1s1.7-2.1,1.7-2.1s-1.9-9.6-4.3-7.9
		c-2.3,1.7-5.1,1-5.9-0.1c-0.8-1.1-2,0.4-2,0.4s-3.8,1.6-6.3-0.9c-2.6-2.5-1.1-8.1-0.8-9c0.3-0.9-1-1.7-2.7-3c-1.6-1.3-1.5-5-1.5-5
		s1.1-5.8-2.4-5.4c-3.5,0.3-4.3,6-4.3,6s0.7,9-3,11.9c-3.7,3,1.4,7.9,1.4,7.9s13.3,9.6,14.1,10.5s1.1,2.6-1.5,5.4
		c-2.6,2.8-5.2,1.3-5.6,1c-0.5-0.3-3.3,0.2-4.4,0.1c-1.1-0.1-2.7-6.1-3.4-5.8s-1.7-0.6-1.7-0.6l-1.7-6.1c0,0-1-2.3-2.8-1.9
		c-1.8,0.4-1.7-0.2-2.9-1.5s1.7-9.1,1.7-9.1s1.6-1.6,1.1-2.5c-0.6-0.9-3.1-8.6-1.1-10.9c2-2.3,3.6-11.1,3.6-11.1s2.9-8.1-1.1-9.4
		c-4-1.3-3.9-5-3.9-5s-0.8-4.6,2.1-5.2c2.9-0.5,9.2,2.6,9.2,2.6s4.3,1.9,5.8,0.7c1.4-1.2,2.6,1.2,0.8,2.8s1.1,4,1.1,4
		s3.8,0.1,3.7-3.6c-0.1-3.7,5-1.5,5-1.5s2.7,1.1,4.2,0.4c1.6-0.7,8-0.6,8.6,0.7s2.7,4.3-1.4,6.3c-4.1,2-4.8,0.2-4.8,0.2
		s-2.9,0.2-2.1,1.2s2.8,0.5,2,2.2s-6.6,0.1-6.6,0.1s-3.5-0.5-3.8,1.1c-0.3,1.6,2.9,4.1,2.9,4.1s2.9,1.4,3.5,5.3
		c0.6,3.9,0.1,6.3,0.1,6.3s1.1,2.8,2.9,1.3s6.9-4.1,6.9-4.1s2.1-3.9,3.5-3.1c1.4,0.8,2.2,3.3,0.4,5.7c-1.8,2.4-4.1,5-3,8
		c1.1,3,3.9,4,3.9,4s2.6,6.8,5.4,6.9s8.1,0.7,8.4-3.6c0.3-4.3,5.6-9,5.6-9s3.3-1.7,1.2-4.8c-2.1-3.1-6.3-2.9-6.3-2.9
		s-6.3,2.5-7.9-1.5s-0.3-5.6-0.3-5.6s0.9-1,0.4-2.1c-0.5-1.2-2.5-0.7-2.5-0.7s-3.4,0.4-3.4-2.4s-3.8-1.3-3.8-1.3s-3.6-1.3,0.5-4.8
		c4.1-3.4,8-3.3,8-3.3s4.4,0.1,4.9,4.9c0,0-1.3,3.5,0.6,4.5c1.9,1,4-0.3,4-0.3s4.1-3.3,2.7-9.3s3.5-5,3.5-5s7.6,2.1,10.7-2.3
		s3.5,1.6,3.5,1.6s-3.7,9.5-6.1,10.9c-2.4,1.5-2.5,4.5-2.5,4.5s0.2,2.3,2.7,3.6c2.4,1.3,4.3,8.6,4.3,8.6s1.7,4.4,5.6,1.8
		c3.9-2.6,4.8-7.4,4.8-7.4s-0.1-4.9-3-6.5c-3-1.5-0.7-4.3-0.7-4.3s2.3-1.4,1.2-3.4c-1.2-2.1-0.9-3.6,0.7-4.4s1.4-2.7,1.4-2.7
		s1.5-4.8,6.7-3.6c5.1,1.1,1.5-3.4,1.5-3.4l-1.4-3c0,0-0.6-3.8,3.9-4.7c4.4-0.8,13.2-4.7,13.2-4.7l-5.6,18.1l-6.8,14.4l-7.4,11.8
		l-10.2,12.7l-11.2,10.8l-11.5,8.6L185.6,237.5z"/>
	<path class="st0" d="M84.7,145.4c-1.4,0.9-2.4,2.3-2.5,3.9c-0.2,2.8,0.1,6.6,2.8,8.7c4.5,3.6,8.7-0.5,10.7,1.8
		c2,2.4,5.8-0.1,5.2-2.3c-0.5-1.8-4-11.9-5.1-15.1c-0.2-0.7-0.6-1.3-1.1-1.8c-1.7-1.7-5.7-5.2-9-4.2c-4.3,1.3-0.8,3.4-0.8,3.4
		S87.1,143.9,84.7,145.4z"/>
	<path class="st0" d="M2.6,108.2c0,0,4,1.1,4.4-2.6c0.4-3.6-2.7-6-2.7-6l-1.8,8.3"/>
	<path class="st0" d="M7.8,87.2c0,0,7.2,3.7,10.3-1.1s3.7-3.8,3.7-3.8s1.2-0.5,1.8,1.5s2,9,5.3,11.7c3.3,2.7-0.8,5.3-0.8,5.3
		s-2.9,0.1-3.7-0.8c-0.8-0.9-8-0.6-9,1.8s0,10.3,4,13.3s3.7,4.9,3.7,4.9s0,2.6-3.7,3.2s-4.1,10.5-4.1,10.5s0.5,7.2,3.8,10.8
		c0,0,0.8,2.7-2.8,3.6s-4.5-2.7-8.9,2.8c-4.4,5.4,1.5,11.6,1.5,11.6s3.6,3.2,8.8-1.7s1.7-9.9,1.7-9.9s-0.2-2.2,2.2-2.3s7.7,0,8.9,2
		c1.1,2-1.6,3.5-1.6,3.5s-3,0.1-2.3,1.8c0.7,1.6,0.5,3.7-0.2,4c-0.7,0.2-5.5,4.2-4.6,6.1c0.8,1.9,3,2.3,3,2.3s-0.3,0.9,0.9,1.7
		c1.2,0.8,2.4-1.1,2.4-1.1s1.3-2.6,3.8-2.7c2.5-0.1,5.5,1.5,7.1-0.6s2.7-5.3,1.3-7.5c-1.4-2.2,0.4-4.9,0.4-4.9s2.8-3,5.1-1.9
		c2.4,1.1,6.8,5.8,6.8,5.8s6.6,6,9,5.5c2.4-0.5,4.5-0.8,4.3-2.7c-0.2-1.9,2.4-2,2.4-2s1.4,0,2.2,2.2c0.8,2.3,2.6,8.2,4.6,10.2
		c2,2,4.7,5.1,5,6.6c0.3,1.5,2,5.5,7.4,4.9c5.5-0.6,4.6-3.3,4.6-3.3s1.6-1.8,3.1-0.2s4.5,2.4,4.5,2.4s1.8,0.5,2.7-1.2
		c1-1.7,1-3.8,2.8-4.4s2.5-1.7,2.1-2.3s-2.9-0.6-2.9-0.6s-15-0.5-17.3-2.3c-2.3-1.8-6.4-0.3-8-4.7c0,0-3-5.5-1.6-7.5
		c1.4-2-0.3-5.1-0.3-5.1s-1.9-2.6-3.3-2.6s-1.5-2.8-1.5-2.8s-2-2.8-3.6-2.5c-1.7,0.3-4.1,1.4-4.1,1.4s-1.6-0.5-1.6-2
		c0-1.6-4.2-3.2-4.2-3.2s-4.5-2.4-7.2-0.6c-2.7,1.8-3.5-0.9-3.5-0.9l-1.8-3.5c0,0-1.2-6.5,1.1-8c2.3-1.5,0.1-4.2-1.9-3.6
		s-7.3,4.1-7,6.9c0.3,2.8,1.9,6.7,1.9,6.7s1.1,3.1,0,3.6c-1.2,0.5-4.2,0.6-4.2,0.6l-9.6-1.1c0,0-3.6-0.8-3.8-4.2s1.8-7,1.8-7
		s5.5-2.9,5.2-4.9c0,0,2.5-4.2-0.5-10.7c0,0-1.5-1-0.4-1.7s8.3-1.5,9.1-4.5c0.8-3,1.8-9,1.8-9s1.2-2.7,3-1.5
		c1.8,1.2,5.1,6.8,5.1,6.8s4,4.2,8.5-0.8s-1.2-11.2-1.2-11.2s-3.6-3.8-8.3,0.2c0,0-2.4,0.5-2.4-1.5c0-2,2.8-4.3,1.5-7.8
		c-1.3-3.5-4.3-7.8-8-8.1c0,0-5.4-2-9.9,1.5c0,0-1.5,0.8-1.5-0.7s-0.2-8.2-3.8-9.2s-6.2,0.8-6.2,0.8L7.8,87.2z"/>
	<path class="st0" d="M222.7,106.6c0,0-8.1,0-8.6,5.8c-0.5,5.8-1.5,5.1-1.5,5.1s-0.8,1-2.3-0.5c-1.4-1.5-6-7.1-10.1-8
		c-4.1-0.9-1.7-5.1-1.7-5.1s2.5-1.5,3.6-1s7.4-3.2,7.2-5.8c-0.2-2.6-4.8-9.2-9.7-9.9c-4.9-0.8-5.5-2.6-5.5-2.6s-1.2-2.3,1.8-4.6
		c3-2.3-1.2-11.2-1.2-11.2s-3.8-6.1-8.3-7.8c0,0-1.9-2,0.8-4.5s5.2,0.3,6.6-6.6c1.4-6.9-6.7-9.6-6.7-9.6s-4.6-1.2-7.1,5.6
		c-2.4,6.8,3.1,9.6,3.1,9.6s1.2,1.8-0.9,3s-6.8,3.6-8.8,2.4c-1.9-1.2-0.2-3.8-0.2-3.8s2.6-1.5,1.2-2.6c-1.4-1.1-2.2-3.1-1.7-3.6
		c0.5-0.5,2.9-6.2,1.3-7.5c-1.6-1.3-3.8-0.6-3.8-0.6s-0.1-0.9-1.6-1c-1.4-0.2-1.7,2.1-1.7,2.1s0.1,2.9-2.1,4.2
		c-2.2,1.2-5.6,1.2-6,3.8c-0.4,2.6,0.1,5.9,2.3,7.2c2.2,1.3,2,4.5,2,4.5s-1.1,3.9-3.7,4.1s-8.7-2-8.7-2s-8.6-2.3-10.5-0.7
		c-1.9,1.6-3.6,2.8-2.6,4.4c1,1.6-1.2,2.9-1.2,2.9s-1.3,0.7-3-1c-1.7-1.7-6.1-6-8.8-6.9c-2.7-0.9-6.5-2.4-7.5-3.5s-4.3-4-8.8-0.9
		c-4.6,3.1-2.6,5-2.6,5s-0.6,2.4-2.7,1.6s-5.1,0-5.1,0s-1.8,0.4-1.9,2.4c-0.1,2,0.8,3.9-0.5,5.2c-1.3,1.3-1.4,2.7-0.8,3
		s2.9-0.8,2.9-0.8s13.5-6.5,16.4-5.9c2.8,0.5,5.8-2.7,9.2,0.5c0,0,5.2,3.5,4.8,5.9c-0.3,2.4,2.6,4.3,2.6,4.3s2.9,1.5,4.1,0.8
		c1.2-0.7,2.6,1.8,2.6,1.8s3,1.6,4.4,0.6c1.4-1,3-3.1,3-3.1s1.6-0.3,2.3,1.1s5.1,0.9,5.1,0.9s5.1,0.1,6.7-2.8
		c1.6-2.9,3.6-0.8,3.6-0.8l3.2,2.3c0,0,4.1,5.2,2.7,7.6s1.8,3.8,3.4,2.3c1.5-1.5,4.6-7,3-9.4c-1.5-2.4-4.8-5.1-4.8-5.1
		s-2.4-2.2-1.6-3.2c0.8-1,3.4-2.5,3.4-2.5l9-3.5c0,0,3.5-1,5.3,2c1.7,2.9,1.6,7,1.6,7s-3.6,5.1-2.3,6.7c0,0-0.3,4.8,5.4,9.3
		c0,0,1.8,0.2,1.1,1.3c-0.6,1.1-6.7,5.2-6,8.2c0.7,3.1,2.6,8.8,2.6,8.8s0.2,3-2,2.8c-2.2-0.2-7.7-3.7-7.7-3.7s-5.5-1.9-7.2,4.7
		c-1.7,6.6,6.3,9.4,6.3,9.4s4.9,1.7,7.3-4c0,0,1.9-1.6,2.8,0.2c0.9,1.8-0.4,5.1,2.3,7.6c2.7,2.5,7.5,4.9,10.8,3.5
		c0,0,5.7-0.7,8.1-5.9c0,0,0.9-1.4,1.7-0.1c0.8,1.3,3.9,7.2,7.6,6.3c3.7-0.8,5.2-3.6,5.2-3.6L222.7,106.6z"/>
	<path class="st0" d="M159.8,108.4c0,0-9.4,3.8-7.6,8.1c1.8,4.4,7.2,5.6,9.8,4.8c2.7-0.8,7.3-2.4,7.3-2.4s4.1-2.4,1.7-7.4
		S159.8,108.4,159.8,108.4z"/>
	<path class="st0" d="M76.5,127.5c0,0-8.4-8-9-13.2c-0.6-5.2-6.7-0.1-5.5,2.5s-4.9,1.6-4.9,1.6s-6.5,1.1-4.2,6
		c2.3,4.9,2.3,11.2,5.3,11.9s8.1,4.1,12.1,1.3s2.2-7.9,2.2-7.9s-0.7-3.5,1-2.3c1.7,1.2,4,2.2,4,2.2L76.5,127.5z"/>
	<path class="st0" d="M23.7,56.8c0,0,3.6,2.8,5.8,1.8s3,0,3,0s1.2,1.4,1.5,2.3c0.2,0.9,2.6,2.1,3.9,0.1s2.5-4,1.5-6.3
		c-1-2.3-5.1-9.2-8.2-8.5c-2.5,1.9-8,10.3-8,10.3"/>
	<path class="st0" d="M43.3,33.9c0,0,2.6,7.7-1.2,13.1s5.6,6.3,5.6,6.3s4.9-2.7,4.3-8.6c-0.3-3.4,1.4-3.2,2.1-3.5
		c2.5-0.8,3.6,1.6,3.6,1.6s3.1,2.7,6.2-2.2c3-4.6,9.4-8.2,6.8-12.1c-2.6-3.9-1.5-12.3-1.5-12.3S45.3,29.2,43.3,33.9z"/>
	<path class="st0" d="M251.7,119.3c0,0-7.7-2.5-9.8-8.9c-2.1-6.3-8.4,0.7-8.4,0.7s-0.8,5.5,4.3,8.6c2.9,1.8,1.7,3.1,1.5,3.7
		c-0.9,2.5-3.4,1.9-3.4,1.9s-4,0.9-2,6.3c1.9,5.1,1,12.4,5.6,12.7c4.7,0.3,10.7,6.2,10.7,6.2S254.2,123.6,251.7,119.3z"/>
	<path class="st0" d="M231.3,149.6c0,0,7-2.7,1.8-9.7c-5.2-7-9.6-3.1-9.6-3.1l-5.7,5.8c0,0-1.2,6.5-4.7,5.9s-2.9-3.4-2.9-3.4
		s0.4-5.1-2-5.3c-2.4-0.1-2.2,1.4-2.2,1.4l-5-8.1c0,0-10.8-5.1-16.8-1.4c-6,3.7-12.8,4.2-13.6,8.4c-0.7,4.2-8.9-2.8-8.9-2.8
		s-2.4,0.4-3.3-3c-0.9-3.3-2-4.5-3.5-3.5c-1.4,1-0.7,2.8-0.7,2.8s-0.1,5.4-1.9,3.5c-1.8-1.9-4.7-5.9-6.6-2.9c-2,2.9,1.4,7,1.4,7
		s-1.6,8.5-9.4,6.1c-7.8-2.4-10.2,2.1-10.2,2.1s-0.6,2.8,1.2,3.2c1.8,0.3,17.7,4.2,17.7,4.2s8.1-2.1,5.4-8.7
		c-2.7-6.5,15.2-0.6,15.2-0.6s8.1,6.5,11.7,3.9s6-7.2,6-7.2s7.7-5,9.5-1.7c1.8,3.4,12.8,7.9,12.8,7.9s5.6,13.4,10.5,9.7
		c4.9-3.7,2.3-7.2,2.3-7.2s5.6-2.9,7.5,2.1s5.6,0.5,5.6,0.5s0.9-1.5-0.8-2.7s-3.1-1.3-2.5-2S231.3,149.6,231.3,149.6z"/>
	<path class="st0" d="M165.2,161.2c0,0-12-6-14.4,1.8s3.1,7.1,7.3,7.5s15-5.7,16.6-3c1.5,2.7,11.7,10.9,16.6,7.6s4.7-13.6-2.2-15.1
		c-6.9-1.5-4.4,4.6-4.4,4.6l-5.1-1.6c0,0-1.7-5.9-7-3.7C167.1,161.6,165.2,161.2,165.2,161.2z"/>
	<path class="st0" d="M104.6,0.8c0,0-6.6,12.1,1,18.8s6.6,20.8,0.9,23.4c-5.7,2.5-0.3,13.2,3.5,11.4c3.7-1.8,10.3-4.3,7.5-9.5
		s1.4-7.8,3.5-7.4c2,0.4,8.3-4.9,3.6-7.1c-4.8-2.3-5.3-1-5.3-1s-2.3-2.7-0.3-3.6s9.2-5.9,4.8-12.7s3.4-9.2,6.3-7.5
		c2.9,1.7,7.5-3.6,3.7-4.9C129.7-0.8,104.6,0.8,104.6,0.8z"/>
	<path class="st0" d="M92.1,47.8c0,0,2.5-7.4,7.3-8.6C104.2,38,99.3,24,94,26.9c-5.2,2.9-6.9,7.9-6.9,7.9l2.5,4.4c0,0-2.1,3-3.9,0.5
		c-1.8-2.6-3-4.9-5.3-3.1c-2.3,1.8-4.6,7.4-0.1,10.7c4.5,3.3-17.7,6-17.7,6s-20.5,9-14.8,19.9s12.9,3.5,12.9,3.5s3.7-5,2.1-7.6
		c-1.6-2.6-2.5-4.8,1.7-6.1c4.2-1.3,9.4,12,4.9,16.6c-4.6,4.6-3.1,14.8,2.1,13.6s13-8.3,8.7-13.7s-5.4-7-4-7.7
		c1.4-0.7,1.7-6.3-0.6-7.8c-2.3-1.5,1.2-8.1,2.7-6.1c0,0,5.7,3.8,10.4-0.8S92.1,47.8,92.1,47.8z"/>
	<path class="st0" d="M73.2,14.5c0,0,0.7,11.7,8.6,13.9s5.7-3.3,5.7-3.3s-1.7-2.8-3.1-2.7c-1.4,0.1-0.4-1.4,0.8-1.7
		c1.3-0.2,5.7,5.5,8.9,0.2c3.3-5.3-3.8-8.5-3.8-8.5s1.1-1.9,2.3-2.1s4.7-3.5,4.1-4.3"/>
	<path class="st0" d="M183.5,38.2c0,0,16.2,4.3,16.8-6c0,0,1-9.2-11.3-6.9c0,0-4.8-0.2-6.8,3.1s-4-0.1-4-0.1s1.6-7.1,6-7.4
		c4.4-0.3,10-3.9,10-3.9s13.9,1.8,14.5,6s6.3,2.2,4.8-1.1c-1.5-3.3-4.2-7.6-9.1-6.9s-4-3.4-4-3.4s-0.7-3.9-4.2-1.8
		c-3.5,2.1-2.4,3.8-2.4,3.8s-4.7,4.3-6.4-0.2s-11,2.9-11,2.9s-4.2,5.5-5.9,4.2c-1.7-1.4-6.9-5.6-10,0.4c-3.1,5.9,0.6,11.8,0.6,11.8
		L183.5,38.2z"/>
	<path class="st0" d="M116.7,69.1l-1.2,8.9c0,0-3.1-2.1-7.7,0.6c-4.6,2.7-8.5,6.5-4.8,9.8c3.7,3.3,11.4,8.5,15.1,4.6
		c3.7-3.9,4.3-10.9,2.4-12.4c-1.8-1.4,6-13.2,6-13.2"/>
	<path class="st0" d="M125.7,42c0,0-8.5,7.7-2.9,13.8c5.6,6,11.8,6.7,14.8,5.3c3-1.4,4.5-5.8,7-4.4c2.6,1.4,9.2-2.3,5.5-6.3
		c-3.7-4-15.1-0.3-15.1-0.3S132.6,39.4,125.7,42z"/>
	<path class="st0" d="M110.2,134.5c0,0-9.7-6-10.8,1.1s7.7,5.7,6.5,8.6c-1.1,2.9,1.8,17.9,9.4,19.9s19.9,9.2,22.1,2.7
		s-15.6-8.7-15.6-8.7s-11.9-14.7-1.9-17.5s13.9-7.8,11-9.5C128,129.4,111.1,140.8,110.2,134.5z"/>
</g>
</svg>
