<?xml version="1.0" encoding="utf-8"?>
<!-- Generator: Adobe Illustrator 19.0.1, SVG Export Plug-In . SVG Version: 6.00 Build 0)  -->
<svg version="1.1" id="Layer_1" xmlns="http://www.w3.org/2000/svg" xmlns:xlink="http://www.w3.org/1999/xlink" x="0px" y="0px"
	 viewBox="0 0 75.3 306.7" style="enable-background:new 0 0 75.3 306.7;" xml:space="preserve">
<style type="text/css">
	.st0{fill:#968AE4;}
	.st1{fill:#78CCC7;}
</style>
<g>
	<polygon class="st0" points="15.7,303.2 49.6,268.5 49.7,268.6 59.8,258.3 59.7,258.2 59.8,258.1 49.4,248 49.3,248.1 25,224.3 
		48.9,199.8 49,199.9 59,189.6 59,189.5 59,189.4 48.7,179.3 48.6,179.4 24.3,155.7 48.1,131.2 48.2,131.3 58.3,121 58.2,120.9 
		58.3,120.8 47.9,110.7 47.9,110.8 23.5,87 47.4,62.5 47.5,62.6 57.6,52.3 57.5,52.2 57.6,52.1 47.2,42.1 47.1,42.1 12.4,8.3 
		2.4,18.6 37.1,52.5 3.2,87.2 3.2,87.2 3.1,87.3 37.8,121.2 13.9,145.6 13.9,145.6 3.9,155.9 38.6,189.7 4.7,224.5 4.7,224.5 
		4.6,224.6 39.3,258.4 5.4,293.1 	"/>
	<polygon class="st1" points="29.6,299.7 63.4,265 63.5,265 73.6,254.7 73.5,254.6 73.6,254.5 63.3,244.5 63.2,244.5 38.8,220.8 
		62.7,196.3 62.8,196.3 72.9,186 72.8,185.9 72.9,185.8 62.5,175.8 62.5,175.9 38.1,152.1 61.9,127.7 62,127.7 72.1,117.4 72,117.3 
		72.1,117.3 61.8,107.2 61.7,107.3 37.3,83.5 61.2,59 61.3,59.1 71.4,48.7 71.3,48.6 71.4,48.6 61.1,38.5 61,38.6 26.3,4.7 16.2,15 
		50.9,48.9 17,83.6 17,83.6 16.9,83.7 51.6,117.6 27.8,142 27.8,142 17.7,152.3 52.4,186.2 18.5,220.9 18.5,220.9 18.4,221 
		53.1,254.9 19.2,289.6 	"/>
</g>
</svg>
