<?xml version="1.0" encoding="utf-8"?>
<!-- Generator: Adobe Illustrator 19.0.1, SVG Export Plug-In . SVG Version: 6.00 Build 0)  -->
<svg version="1.1" id="Layer_1" xmlns="http://www.w3.org/2000/svg" xmlns:xlink="http://www.w3.org/1999/xlink" x="0px" y="0px"
	 viewBox="0 0 365 365" style="enable-background:new 0 0 365 365;" xml:space="preserve">
<style type="text/css">
	.st0{fill:none;stroke:#FFFFFF;stroke-width:2;stroke-miterlimit:10;}
</style>
<g>
	<g>
		<line class="st0" x1="365" y1="11.5" x2="0" y2="11.5"/>
		<line class="st0" x1="365" y1="49.5" x2="0" y2="49.5"/>
		<line class="st0" x1="365" y1="87.5" x2="0" y2="87.5"/>
		<line class="st0" x1="365" y1="125.5" x2="0" y2="125.5"/>
		<line class="st0" x1="365" y1="163.5" x2="0" y2="163.5"/>
		<line class="st0" x1="365" y1="201.5" x2="0" y2="201.5"/>
		<line class="st0" x1="365" y1="239.5" x2="0" y2="239.5"/>
		<line class="st0" x1="365" y1="277.5" x2="0" y2="277.5"/>
		<line class="st0" x1="365" y1="315.5" x2="0" y2="315.5"/>
		<line class="st0" x1="365" y1="353.5" x2="0" y2="353.5"/>
	</g>
	<g>
		<line class="st0" x1="353.5" y1="365" x2="353.5" y2="0"/>
		<line class="st0" x1="315.5" y1="365" x2="315.5" y2="0"/>
		<line class="st0" x1="277.5" y1="365" x2="277.5" y2="0"/>
		<line class="st0" x1="239.5" y1="365" x2="239.5" y2="0"/>
		<line class="st0" x1="201.5" y1="365" x2="201.5" y2="0"/>
		<line class="st0" x1="163.5" y1="365" x2="163.5" y2="0"/>
		<line class="st0" x1="125.5" y1="365" x2="125.5" y2="0"/>
		<line class="st0" x1="87.5" y1="365" x2="87.5" y2="0"/>
		<line class="st0" x1="49.5" y1="365" x2="49.5" y2="0"/>
		<line class="st0" x1="11.5" y1="365" x2="11.5" y2="0"/>
	</g>
</g>
</svg>
