<?xml version="1.0" encoding="utf-8"?>
<!-- Generator: Adobe Illustrator 19.0.1, SVG Export Plug-In . SVG Version: 6.00 Build 0)  -->
<svg version="1.1" id="Layer_1" xmlns="http://www.w3.org/2000/svg" xmlns:xlink="http://www.w3.org/1999/xlink" x="0px" y="0px"
	 viewBox="0 0 79.7 79.7" style="enable-background:new 0 0 79.7 79.7;" xml:space="preserve">
<style type="text/css">
	.st0{fill:#968AE4;}
	.st1{fill:#FFF66C;}
</style>
<g>
	<path class="st0" d="M45.7,77.1c-18.7,0-34-15.3-34-34c0-18.7,15.3-34,34-34c18.7,0,34,15.3,34,34C79.7,61.9,64.5,77.1,45.7,77.1z
		 M45.7,26.2c-9.3,0-16.9,7.6-16.9,16.9c0,9.3,7.6,16.9,16.9,16.9c9.3,0,16.9-7.6,16.9-16.9C62.6,33.8,55,26.2,45.7,26.2z"/>
	<path class="st1" d="M35.6,69.8c-18.7,0-34-15.3-34-34c0-18.7,15.3-34,34-34c18.7,0,34,15.3,34,34C69.6,54.5,54.3,69.8,35.6,69.8z
		 M35.6,18.9c-9.3,0-16.9,7.6-16.9,16.9c0,9.3,7.6,16.9,16.9,16.9c9.3,0,16.9-7.6,16.9-16.9C52.5,26.5,44.9,18.9,35.6,18.9z"/>
</g>
</svg>
