<?xml version="1.0" encoding="utf-8"?>
<!-- Generator: Adobe Illustrator 19.0.1, SVG Export Plug-In . SVG Version: 6.00 Build 0)  -->
<svg version="1.1" xmlns="http://www.w3.org/2000/svg" xmlns:xlink="http://www.w3.org/1999/xlink" x="0px" y="0px"
	 viewBox="-345 241.2 256 79.8" enable-background="new -345 241.2 256 79.8" xml:space="preserve">
<rect x="-134.5" y="239.8" transform="matrix(-0.9237 -0.3832 0.3832 -0.9237 -357.7673 488.8282)" fill="#FCD5E4" width="8.6" height="80.5"/>
<rect x="-329.9" y="239.8" transform="matrix(-0.9237 -0.3832 0.3832 -0.9237 -733.6656 413.9487)" fill="#FCD5E4" width="8.6" height="80.5"/>
<rect x="-308.2" y="239.8" transform="matrix(-0.9237 -0.3832 0.3832 -0.9237 -691.9173 422.2565)" fill="#FCD5E4" width="8.6" height="80.5"/>
<rect x="-286.5" y="239.8" transform="matrix(-0.9237 -0.3832 0.3832 -0.9237 -650.1688 430.5643)" fill="#FCD5E4" width="8.6" height="80.5"/>
<rect x="-264.7" y="239.8" transform="matrix(-0.9237 -0.3832 0.3832 -0.9237 -608.2574 438.9812)" fill="#FCD5E4" width="8.6" height="80.5"/>
<rect x="-243" y="239.8" transform="matrix(-0.9237 -0.3832 0.3832 -0.9237 -566.5092 447.289)" fill="#FCD5E4" width="8.6" height="80.5"/>
<rect x="-221.3" y="239.8" transform="matrix(-0.9237 -0.3832 0.3832 -0.9237 -524.7607 455.597)" fill="#FCD5E4" width="8.6" height="80.5"/>
<rect x="-199.6" y="239.8" transform="matrix(-0.9237 -0.3832 0.3832 -0.9237 -483.0124 463.9048)" fill="#FCD5E4" width="8.6" height="80.5"/>
<rect x="-177.9" y="239.8" transform="matrix(-0.9237 -0.3832 0.3832 -0.9237 -441.2641 472.2126)" fill="#FCD5E4" width="8.6" height="80.5"/>
<rect x="-156.2" y="239.8" transform="matrix(-0.9237 -0.3832 0.3832 -0.9237 -399.5156 480.5204)" fill="#FCD5E4" width="8.6" height="80.5"/>
<rect x="-112.7" y="239.8" transform="matrix(-0.9237 -0.3832 0.3832 -0.9237 -315.856 497.2451)" fill="#FCD5E4" width="8.6" height="80.5"/>
</svg>
