<?xml version="1.0" encoding="utf-8"?>
<!-- Generator: Adobe Illustrator 19.0.1, SVG Export Plug-In . SVG Version: 6.00 Build 0)  -->
<svg version="1.1" id="Layer_1" xmlns="http://www.w3.org/2000/svg" xmlns:xlink="http://www.w3.org/1999/xlink" x="0px" y="0px"
	 viewBox="0 0 505 335" enable-background="new 0 0 505 335" xml:space="preserve">
<g>
	<g>
		<g id="XMLID_6_">
			<g>
				<path fill="#FFFFFF" d="M499.9,50.8v271c0,4.9-4,8.9-8.9,8.9H11.3c-4.9,0-8.9-4-8.9-8.9v-271h497.1H499.9z"/>
				<path fill="#E3E2E8" d="M499.9,11.3v39.5h-0.4H2.4V11.3c0-4.9,4-8.9,8.9-8.9H491C495.9,2.4,499.9,6.4,499.9,11.3z"/>
			</g>
			<g>
				<path fill="none" stroke="#D1D1D3" stroke-miterlimit="10" d="M499.9,50.8v271c0,4.9-4,8.9-8.9,8.9H11.3c-4.9,0-8.9-4-8.9-8.9
					v-271V11.3c0-4.9,4-8.9,8.9-8.9H491c4.9,0,8.9,4,8.9,8.9V50.8z"/>
			</g>
		</g>
		<rect x="66.2" y="30.3" fill="#FFFFFF" width="413.4" height="13.1"/>
		<rect x="17.6" y="30.3" fill="#FFFFFF" width="35.3" height="13.1"/>
		<g>
			<polygon fill="#A5A4A8" points="32.8,40.8 28,37.1 32.8,33.4 			"/>
			<polygon fill="#A5A4A8" points="38.3,33.4 43.1,37.1 38.3,40.8 			"/>
		</g>
		<circle fill="#A5A4A8" cx="17.4" cy="16.7" r="6.2"/>
		<circle fill="#A5A4A8" cx="35.5" cy="16.7" r="6.2"/>
		<circle fill="#A5A4A8" cx="53.5" cy="16.7" r="6.2"/>
	</g>
</g>
</svg>
